<?xml version="1.0" encoding="UTF-8" standalone="no"?>

<svg xmlns="http://www.w3.org/2000/svg" version="1.1" viewBox="0.00 0.00 668.00 692.00">
<g stroke-width="2.00" fill="none" stroke-linecap="butt">
<path stroke="#7e8599" vector-effect="non-scaling-stroke" d="&#xA;  M 258.97 185.71&#xA;  Q 259.22 120.83 259.25 55.97&#xA;  C 259.26 44.98 258.43 37.09 251.81 29.46&#xA;  Q 241.42 17.49 224.75 17.48&#xA;  Q 171.84 17.47 118.94 17.49&#xA;  C 104.24 17.50 91.64 28.57 88.44 42.30&#xA;  Q 87.48 46.42 87.49 62.23&#xA;  Q 87.52 103.46 87.43 148.45&#xA;  A 0.30 0.30 0.0 0 1 87.12 148.75&#xA;  C 77.34 148.73 64.38 147.54 55.39 149.70&#xA;  C 38.70 153.72 27.09 167.56 24.98 184.25&#xA;  C 24.15 190.85 24.98 201.92 24.99 208.92&#xA;  Q 25.08 285.43 24.89 361.93&#xA;  C 24.84 385.20 25.15 408.48 25.14 431.76&#xA;  C 25.12 448.04 33.61 457.48 46.91 465.35&#xA;  Q 84.13 487.38 121.56 509.02&#xA;  Q 127.37 512.38 132.21 517.05&#xA;  Q 135.27 519.99 135.43 525.24&#xA;  C 136.39 557.35 135.71 589.58 135.77 621.72&#xA;  Q 135.79 629.76 137.10 634.52&#xA;  C 141.40 650.08 154.12 662.41 169.71 666.56&#xA;  Q 175.16 668.02 186.42 668.06&#xA;  C 285.26 668.41 384.10 668.21 482.94 668.13&#xA;  C 511.16 668.10 533.99 648.19 534.28 619.25&#xA;  Q 534.74 572.72 534.43 526.19&#xA;  C 534.39 519.48 537.37 515.72 542.83 512.34&#xA;  Q 582.27 487.95 621.96 463.99&#xA;  C 632.00 457.93 640.39 448.09 641.25 436.15&#xA;  C 642.13 424.05 641.51 409.27 641.51 400.05&#xA;  Q 641.48 300.24 641.52 200.43&#xA;  C 641.52 188.52 642.84 176.81 635.26 166.26&#xA;  C 626.93 154.69 615.14 148.55 600.94 148.74&#xA;  Q 589.92 148.89 578.82 149.06&#xA;  Q 578.28 149.07 578.28 148.53&#xA;  Q 578.23 99.89 578.13 51.25&#xA;  C 578.10 35.40 572.33 23.84 557.46 17.37&#xA;  C 551.72 14.88 545.12 14.63 538.75 14.68&#xA;  Q 489.75 15.08 440.75 14.56&#xA;  Q 429.12 14.43 420.34 20.36&#xA;  C 409.99 27.35 406.43 37.27 406.12 49.39&#xA;  C 405.47 75.44 405.84 101.50 405.66 127.57&#xA;  Q 405.45 156.77 406.37 185.07&#xA;  Q 406.41 186.24 405.23 186.24&#xA;  L 259.51 186.25&#xA;  Q 258.96 186.25 258.97 185.71"></path>
<path stroke="#7c8495" vector-effect="non-scaling-stroke" d="&#xA;  M 153.81 52.54&#xA;  Q 144.61 53.18 135.00 53.11&#xA;  C 124.15 53.03 121.47 58.59 121.49 68.90&#xA;  Q 121.51 75.95 121.51 83.06"></path>
<path stroke="#7e827f" vector-effect="non-scaling-stroke" d="&#xA;  M 121.51 83.06&#xA;  L 121.72 147.88&#xA;  Q 121.72 148.46 122.30 148.46&#xA;  L 125.75 148.48"></path>
<path stroke="#7e7a70" vector-effect="non-scaling-stroke" d="&#xA;  M 125.75 148.48&#xA;  L 154.97 148.70&#xA;  Q 155.48 148.70 155.49 148.18&#xA;  L 155.53 135.00"></path>
<path stroke="#7e8599" vector-effect="non-scaling-stroke" d="&#xA;  M 155.53 135.00&#xA;  L 155.69 105.96&#xA;  Q 155.69 105.33 156.32 105.33&#xA;  L 181.68 105.48&#xA;  Q 182.27 105.48 182.27 106.07&#xA;  L 182.37 134.84"></path>
<path stroke="#7e7a70" vector-effect="non-scaling-stroke" d="&#xA;  M 182.37 134.84&#xA;  L 182.78 147.71&#xA;  Q 182.80 148.25 183.34 148.26&#xA;  L 212.27 148.68"></path>
<path stroke="#7c8495" vector-effect="non-scaling-stroke" d="&#xA;  M 212.27 148.68&#xA;  L 224.00 148.72&#xA;  Q 224.52 148.72 224.52 148.21&#xA;  Q 224.39 106.12 224.79 64.02&#xA;  C 224.86 56.94 221.16 52.35 213.76 52.66&#xA;  Q 201.40 53.17 189.02 53.07"></path>
<path stroke="#062442" vector-effect="non-scaling-stroke" d="&#xA;  M 189.02 53.07&#xA;  Q 186.97 53.26 186.70 52.37&#xA;  Q 186.59 52.01 186.21 51.98&#xA;  Q 169.92 50.77 153.81 52.54"></path>
<path stroke="#829ba4" vector-effect="non-scaling-stroke" d="&#xA;  M 189.02 53.07&#xA;  Q 171.61 53.53 153.81 52.54"></path>
<path stroke="#faf1d2" vector-effect="non-scaling-stroke" d="&#xA;  M 212.27 148.68&#xA;  L 210.58 148.18&#xA;  A 0.68 0.68 0.0 0 1 210.74 146.85&#xA;  L 218.98 146.41&#xA;  A 2.96 2.96 0.0 0 0 221.77 143.21&#xA;  Q 221.50 139.95 222.67 136.96&#xA;  Q 223.35 135.26 221.51 135.17&#xA;  L 202.84 134.29&#xA;  Q 202.30 134.26 202.30 133.73&#xA;  Q 202.21 106.74 201.80 79.75&#xA;  C 201.75 76.65 202.03 72.85 200.58 70.24&#xA;  C 198.04 65.68 190.52 65.05 186.25 65.17&#xA;  C 174.13 65.53 161.92 65.80 149.81 65.17&#xA;  C 137.80 64.54 134.94 66.53 129.64 76.90"></path>
<path stroke="#faf9e1" vector-effect="non-scaling-stroke" d="&#xA;  M 129.64 76.90&#xA;  L 127.51 81.44&#xA;  A 1.05 1.02 6.5 0 1 126.76 82.02&#xA;  L 121.51 83.06"></path>
<path stroke="#fbefbc" vector-effect="non-scaling-stroke" d="&#xA;  M 132.61 134.78&#xA;  L 125.39 135.05&#xA;  A 2.47 2.47 0.0 0 0 123.09 138.13&#xA;  L 125.75 148.48"></path>
<path stroke="#fcf2d6" vector-effect="non-scaling-stroke" d="&#xA;  M 182.37 134.84&#xA;  L 196.76 134.01&#xA;  Q 197.28 133.98 197.26 133.46&#xA;  C 196.52 115.71 197.57 96.70 196.22 78.22&#xA;  C 195.79 72.47 191.15 71.45 186.25 71.42&#xA;  C 175.31 71.34 164.38 71.25 153.45 70.96&#xA;  C 136.41 70.50 131.03 72.74 132.10 91.06"></path>
<path stroke="#fbefbc" vector-effect="non-scaling-stroke" d="&#xA;  M 132.10 91.06&#xA;  Q 131.49 92.21 129.05 90.87&#xA;  A 1.64 1.64 0.0 0 1 128.21 89.24&#xA;  L 129.64 76.90"></path>
<path stroke="#fcf2d6" vector-effect="non-scaling-stroke" d="&#xA;  M 155.53 135.00&#xA;  L 132.61 134.78"></path>
<path stroke="#fcfae5" vector-effect="non-scaling-stroke" d="&#xA;  M 132.61 134.78&#xA;  L 132.10 91.06"></path>
<path stroke="#7f858a" vector-effect="non-scaling-stroke" d="&#xA;  M 441.07 59.74&#xA;  L 441.00 147.45&#xA;  A 1.58 1.58 0.0 0 0 442.60 149.04&#xA;  L 477.54 148.68&#xA;  Q 478.14 148.67 478.15 148.06&#xA;  L 478.19 134.78"></path>
<path stroke="#7e8599" vector-effect="non-scaling-stroke" d="&#xA;  M 478.19 134.78&#xA;  L 478.49 106.06&#xA;  Q 478.49 105.48 479.08 105.48&#xA;  L 503.72 105.43&#xA;  Q 504.41 105.43 504.41 106.12&#xA;  L 504.74 136.20"></path>
<path stroke="#7e7a70" vector-effect="non-scaling-stroke" d="&#xA;  M 504.74 136.20&#xA;  L 504.76 147.77&#xA;  A 0.98 0.98 0.0 0 0 505.74 148.75&#xA;  L 543.30 148.75&#xA;  Q 543.95 148.75 543.95 148.11&#xA;  L 543.98 143.25"></path>
<path stroke="#7c8495" vector-effect="non-scaling-stroke" d="&#xA;  M 543.98 143.25&#xA;  Q 543.91 88.97 544.22 63.01&#xA;  C 544.38 49.64 534.08 51.74 525.22 51.74&#xA;  Q 489.57 51.76 453.91 51.74&#xA;  C 447.05 51.74 443.67 53.59 441.07 59.74"></path>
<path stroke="#faf1d2" vector-effect="non-scaling-stroke" d="&#xA;  M 543.98 143.25&#xA;  Q 541.77 141.91 542.91 136.98&#xA;  A 1.49 1.48 -81.8 0 0 541.55 135.16&#xA;  L 525.50 134.23&#xA;  Q 525.12 134.21 525.11 133.82&#xA;  Q 524.48 111.19 525.11 88.56&#xA;  C 525.32 81.17 526.88 63.57 515.00 63.64&#xA;  Q 495.82 63.76 476.67 63.79&#xA;  C 462.81 63.82 460.31 69.49 459.93 82.44&#xA;  Q 459.18 108.10 459.69 133.84&#xA;  Q 459.70 134.37 459.17 134.39&#xA;  L 445.61 134.75"></path>
<path stroke="#fbfcec" vector-effect="non-scaling-stroke" d="&#xA;  M 445.61 134.75&#xA;  Q 446.71 126.23 446.42 117.52&#xA;  C 445.95 103.48 445.98 89.61 446.24 75.56&#xA;  Q 446.36 69.27 446.92 66.22&#xA;  Q 446.95 66.03 447.03 65.26&#xA;  Q 447.10 64.62 447.79 64.19&#xA;  Q 448.22 63.93 448.01 63.46&#xA;  Q 447.09 61.46 447.81 59.31&#xA;  A 0.54 0.54 0.0 0 0 447.17 58.62&#xA;  L 444.43 59.34&#xA;  Q 443.98 59.45 443.59 59.21&#xA;  Q 442.55 58.56 441.07 59.74"></path>
<path stroke="#fcf2d6" vector-effect="non-scaling-stroke" d="&#xA;  M 504.74 136.20&#xA;  Q 511.77 134.25 519.69 134.53&#xA;  Q 520.29 134.55 520.29 133.94&#xA;  Q 520.53 107.34 520.85 80.75&#xA;  C 520.92 75.03 517.83 70.33 511.76 70.45&#xA;  C 497.73 70.73 486.21 70.99 475.74 70.49&#xA;  C 468.89 70.16 464.58 73.18 464.34 80.52&#xA;  Q 463.47 106.53 463.17 132.57&#xA;  Q 463.16 133.03 462.76 133.24&#xA;  L 461.95 133.66&#xA;  A 0.34 0.34 0.0 0 0 462.13 134.31&#xA;  C 465.86 134.10 474.64 133.25 476.58 134.68"></path>
<path stroke="#fcf1c6" vector-effect="non-scaling-stroke" d="&#xA;  M 445.61 134.75&#xA;  Q 444.60 134.65 444.03 134.80&#xA;  Q 443.43 134.95 443.36 135.90&#xA;  Q 443.02 140.59 443.74 145.16&#xA;  A 1.49 1.47 84.1 0 0 445.26 146.41&#xA;  Q 451.79 146.12 458.74 146.14&#xA;  C 460.49 146.14 461.76 146.89 463.56 146.78&#xA;  Q 469.09 146.46 474.77 146.15&#xA;  Q 475.32 146.12 475.38 145.58&#xA;  L 476.58 134.68"></path>
<path stroke="#fdfdf0" vector-effect="non-scaling-stroke" d="&#xA;  M 476.58 134.68&#xA;  Q 477.54 134.92 478.19 134.78"></path>
<path stroke="#223e59" vector-effect="non-scaling-stroke" d="&#xA;  M 60.70 270.49&#xA;  Q 59.42 281.82 60.42 293.26"></path>
<path stroke="#7f858a" vector-effect="non-scaling-stroke" d="&#xA;  M 60.42 293.26&#xA;  L 60.49 315.45"></path>
<path stroke="#223e59" vector-effect="non-scaling-stroke" d="&#xA;  M 60.49 315.45&#xA;  C 60.28 319.82 60.64 323.41 60.02 328.14&#xA;  Q 59.54 331.75 60.74 335.16"></path>
<path stroke="#7f858a" vector-effect="non-scaling-stroke" d="&#xA;  M 60.74 335.16&#xA;  L 60.71 364.74"></path>
<path stroke="#223e59" vector-effect="non-scaling-stroke" d="&#xA;  M 60.71 364.74&#xA;  Q 58.73 376.46 60.96 387.80"></path>
<path stroke="#7f858a" vector-effect="non-scaling-stroke" d="&#xA;  M 60.96 387.80&#xA;  Q 60.73 402.52 60.79 417.33&#xA;  C 60.81 423.59 60.78 433.76 70.24 432.89"></path>
<path stroke="#223e59" vector-effect="non-scaling-stroke" d="&#xA;  M 70.24 432.89&#xA;  C 100.63 449.64 130.78 466.74 161.06 483.70&#xA;  Q 166.62 486.82 174.75 492.04"></path>
<path stroke="#001c3c" vector-effect="non-scaling-stroke" d="&#xA;  M 174.75 492.04&#xA;  L 172.20 493.36&#xA;  Q 171.76 493.59 171.69 494.07&#xA;  Q 169.69 506.31 171.55 518.20"></path>
<path stroke="#5b7486" vector-effect="non-scaling-stroke" d="&#xA;  M 171.55 518.20&#xA;  L 171.45 600.69"></path>
<path stroke="#223e59" vector-effect="non-scaling-stroke" d="&#xA;  M 171.45 600.69&#xA;  Q 171.11 610.39 171.28 620.01&#xA;  C 171.37 625.69 176.34 626.19 180.50 626.25&#xA;  Q 222.64 626.84 280.81 626.35&#xA;  C 328.15 625.95 393.80 626.50 454.89 626.07"></path>
<path stroke="#062442" vector-effect="non-scaling-stroke" d="&#xA;  M 454.89 626.07&#xA;  L 497.87 625.87&#xA;  A 1.20 1.20 0.0 0 0 499.06 624.67&#xA;  L 499.03 610.79"></path>
<path stroke="#001c3c" vector-effect="non-scaling-stroke" d="&#xA;  M 499.03 610.79&#xA;  L 499.23 488.90"></path>
<path stroke="#062442" vector-effect="non-scaling-stroke" d="&#xA;  M 499.23 488.90&#xA;  Q 507.35 483.19 514.69 478.69&#xA;  Q 543.43 461.03 577.26 442.06"></path>
<path stroke="#001c3c" vector-effect="non-scaling-stroke" d="&#xA;  M 577.26 442.06&#xA;  C 584.82 437.50 594.21 433.16 602.79 431.69&#xA;  Q 604.38 431.41 604.42 429.69&#xA;  C 606.05 352.86 605.43 275.84 604.58 199.01"></path>
<path stroke="#223e59" vector-effect="non-scaling-stroke" d="&#xA;  M 604.58 199.01&#xA;  L 604.01 185.71&#xA;  A 1.63 1.62 -1.1 0 0 602.38 184.15&#xA;  L 440.54 183.92&#xA;  A 0.88 0.88 0.0 0 0 439.66 184.83&#xA;  Q 440.03 197.34 439.50 210.33&#xA;  C 439.02 222.07 433.46 223.67 422.45 223.34&#xA;  Q 414.10 223.10 405.72 223.36"></path>
<path stroke="#7f858a" vector-effect="non-scaling-stroke" d="&#xA;  M 405.72 223.36&#xA;  C 404.57 222.78 403.32 222.26 401.94 222.28&#xA;  Q 338.47 223.25 275.00 222.41&#xA;  Q 272.87 222.39 270.36 223.99"></path>
<path stroke="#223e59" vector-effect="non-scaling-stroke" d="&#xA;  M 270.36 223.99&#xA;  Q 256.59 223.07 237.24 223.31&#xA;  C 227.93 223.43 227.22 217.01 227.28 209.12&#xA;  Q 227.37 196.83 226.96 184.51&#xA;  Q 226.94 184.01 226.45 184.05&#xA;  L 218.80 184.64&#xA;  Q 218.37 184.68 217.98 184.49&#xA;  Q 213.15 182.10 207.86 182.71&#xA;  C 201.65 183.43 196.91 183.49 191.24 183.69"></path>
<path stroke="#7f858a" vector-effect="non-scaling-stroke" d="&#xA;  M 191.24 183.69&#xA;  Q 160.27 183.85 129.29 183.67&#xA;  C 117.05 183.60 102.72 183.85 89.41 183.73&#xA;  C 86.99 183.71 84.46 184.76 81.80 184.29"></path>
<path stroke="#173451" vector-effect="non-scaling-stroke" d="&#xA;  M 81.80 184.29&#xA;  Q 76.25 185.63 72.27 184.07"></path>
<path stroke="#7f858a" vector-effect="non-scaling-stroke" d="&#xA;  M 72.27 184.07&#xA;  Q 70.70 182.74 68.79 182.27&#xA;  Q 68.27 182.14 67.80 182.40&#xA;  C 60.63 186.32 61.42 191.36 61.25 200.01&#xA;  Q 60.53 235.25 60.70 270.49"></path>
<path stroke="#95aba8" vector-effect="non-scaling-stroke" d="&#xA;  M 72.27 184.07&#xA;  C 75.30 186.50 71.87 190.30 71.88 193.69&#xA;  Q 72.05 229.07 71.82 264.44&#xA;  C 71.70 283.16 72.26 302.28 71.70 321.26"></path>
<path stroke="#a1b6b0" vector-effect="non-scaling-stroke" d="&#xA;  M 71.70 321.26&#xA;  Q 71.46 375.62 71.50 430.00&#xA;  Q 71.50 431.35 70.24 432.89"></path>
<path stroke="#a1b6b0" vector-effect="non-scaling-stroke" d="&#xA;  M 60.96 387.80&#xA;  Q 61.66 376.23 60.71 364.74"></path>
<path stroke="#a1b6b0" vector-effect="non-scaling-stroke" d="&#xA;  M 60.74 335.16&#xA;  L 60.49 315.45"></path>
<path stroke="#a1b6b0" vector-effect="non-scaling-stroke" d="&#xA;  M 60.42 293.26&#xA;  C 60.51 288.76 61.59 283.44 61.03 278.81&#xA;  C 60.67 275.80 60.82 273.32 60.70 270.49"></path>
<path stroke="#a1b6b0" vector-effect="non-scaling-stroke" d="&#xA;  M 270.36 223.99&#xA;  C 268.61 226.39 269.55 232.50 273.75 232.47&#xA;  C 276.53 232.45 280.45 232.00 283.75 232.00&#xA;  C 318.21 232.07 352.72 232.23 387.17 231.69&#xA;  C 391.52 231.63 396.67 232.74 400.45 232.63&#xA;  C 405.42 232.49 406.70 227.38 405.72 223.36"></path>
<path stroke="#224d62" vector-effect="non-scaling-stroke" d="&#xA;  M 604.58 199.01&#xA;  L 573.38 199.01"></path>
<path stroke="#285568" vector-effect="non-scaling-stroke" d="&#xA;  M 573.38 199.01&#xA;  C 569.99 199.00 564.01 197.75 562.78 201.51&#xA;  Q 561.27 206.13 561.13 211.00&#xA;  C 560.28 239.37 560.39 267.87 560.77 296.27"></path>
<path stroke="#396577" vector-effect="non-scaling-stroke" d="&#xA;  M 560.77 296.27&#xA;  Q 559.34 296.55 558.26 295.60"></path>
<path stroke="#223e59" vector-effect="non-scaling-stroke" d="&#xA;  M 558.26 295.60&#xA;  C 558.63 278.74 536.54 270.70 523.13 271.74&#xA;  C 515.60 272.32 507.74 275.55 500.78 279.01&#xA;  Q 438.94 309.74 376.60 339.50&#xA;  C 368.70 343.27 365.22 340.26 364.69 331.93&#xA;  Q 364.15 323.47 364.08 315.00&#xA;  C 364.01 305.99 352.73 303.50 347.74 310.71&#xA;  C 344.84 314.90 344.98 318.29 344.65 324.57&#xA;  Q 344.04 336.06 344.47 347.19"></path>
<path stroke="#285568" vector-effect="non-scaling-stroke" d="&#xA;  M 344.47 347.19&#xA;  Q 349.27 363.00 365.53 368.45&#xA;  C 369.08 369.64 374.37 371.84 378.06 370.83"></path>
<path stroke="#223e59" vector-effect="non-scaling-stroke" d="&#xA;  M 378.06 370.83&#xA;  L 392.69 374.79"></path>
<path stroke="#9caba5" vector-effect="non-scaling-stroke" d="&#xA;  M 392.69 374.79&#xA;  Q 380.62 377.55 368.93 380.05&#xA;  C 367.21 380.42 366.79 381.34 367.12 382.97"></path>
<path stroke="#223e59" vector-effect="non-scaling-stroke" d="&#xA;  M 367.12 382.97&#xA;  C 363.06 384.87 350.58 390.77 357.08 397.01"></path>
<path stroke="#285568" vector-effect="non-scaling-stroke" d="&#xA;  M 357.08 397.01&#xA;  Q 357.01 397.61 355.92 397.82"></path>
<path stroke="#223e59" vector-effect="non-scaling-stroke" d="&#xA;  M 355.92 397.82&#xA;  Q 352.34 393.37 351.19 392.07&#xA;  C 340.81 380.28 324.91 381.86 316.90 395.30&#xA;  C 313.86 400.40 309.16 402.66 311.03 409.21&#xA;  Q 311.56 411.08 313.77 410.58&#xA;  C 319.74 409.21 325.86 406.97 331.53 406.45&#xA;  C 341.85 405.51 349.84 407.53 359.52 409.27&#xA;  A 0.57 0.57 0.0 0 0 360.19 408.63&#xA;  L 359.33 402.32"></path>
<path stroke="#285568" vector-effect="non-scaling-stroke" d="&#xA;  M 359.33 402.32&#xA;  Q 365.43 410.60 373.32 413.95&#xA;  C 389.42 420.80 407.78 422.42 425.34 425.29"></path>
<path stroke="#396577" vector-effect="non-scaling-stroke" d="&#xA;  M 425.34 425.29&#xA;  L 428.17 425.93&#xA;  A 0.68 0.68 0.0 0 1 428.69 426.47&#xA;  L 429.02 428.25&#xA;  Q 429.12 428.77 429.61 428.97&#xA;  C 444.34 435.09 462.29 434.30 477.06 429.16&#xA;  C 487.24 425.62 499.58 418.29 508.94 411.92&#xA;  C 524.48 401.35 534.91 386.74 543.83 370.18&#xA;  A 0.67 0.67 0.0 0 0 543.24 369.19&#xA;  Q 539.47 369.17 535.83 370.10&#xA;  C 532.49 370.96 530.80 373.85 529.02 376.54&#xA;  A 0.76 0.76 0.0 0 1 527.64 376.26&#xA;  L 527.35 374.65"></path>
<path stroke="#223e59" vector-effect="non-scaling-stroke" d="&#xA;  M 527.35 374.65&#xA;  C 541.47 358.26 546.38 334.32 545.42 313.26"></path>
<path stroke="#396577" vector-effect="non-scaling-stroke" d="&#xA;  M 545.42 313.26&#xA;  L 545.51 312.31&#xA;  Q 545.55 311.85 546.00 311.86&#xA;  L 560.73 312.18"></path>
<path stroke="#285568" vector-effect="non-scaling-stroke" d="&#xA;  M 560.73 312.18&#xA;  Q 560.90 366.17 560.74 420.00&#xA;  C 560.72 425.67 561.34 429.67 566.13 432.48&#xA;  A 0.76 0.75 41.0 0 1 566.22 433.72&#xA;  C 560.40 438.36 554.88 442.10 547.91 445.90&#xA;  Q 520.08 461.04 493.18 477.75&#xA;  C 487.22 481.45 475.17 488.58 471.91 496.44"></path>
<path stroke="#223e59" vector-effect="non-scaling-stroke" d="&#xA;  M 471.91 496.44&#xA;  C 453.34 460.74 420.38 436.02 382.25 424.50&#xA;  C 361.66 418.28 337.67 417.76 314.96 420.47&#xA;  C 291.32 423.29 270.85 431.64 250.83 444.24&#xA;  C 225.53 460.16 209.60 483.86 197.98 511.01"></path>
<path stroke="#224d62" vector-effect="non-scaling-stroke" d="&#xA;  M 197.98 511.01&#xA;  Q 187.86 499.85 174.75 492.04"></path>
<path stroke="#396577" vector-effect="non-scaling-stroke" d="&#xA;  M 71.70 321.26&#xA;  L 72.43 321.08&#xA;  Q 73.01 320.93 73.05 320.34&#xA;  L 73.57 312.97&#xA;  A 0.99 0.98 -3.9 0 1 74.36 312.07&#xA;  Q 79.12 311.13 80.95 308.67"></path>
<path stroke="#a1b6b0" vector-effect="non-scaling-stroke" d="&#xA;  M 80.95 308.67&#xA;  Q 84.69 313.41 88.74 312.27&#xA;  C 91.72 311.42 93.30 309.08 93.27 305.84&#xA;  Q 93.04 278.97 93.76 252.11&#xA;  C 93.90 246.79 92.39 243.31 86.76 242.97"></path>
<path stroke="#396577" vector-effect="non-scaling-stroke" d="&#xA;  M 86.76 242.97&#xA;  Q 86.32 239.32 87.30 236.64"></path>
<path stroke="#a1b6b0" vector-effect="non-scaling-stroke" d="&#xA;  M 87.30 236.64&#xA;  C 91.03 236.02 93.98 234.63 93.84 230.98&#xA;  Q 93.19 213.51 92.98 195.90&#xA;  A 0.62 0.62 0.0 0 1 93.60 195.28&#xA;  C 131.00 195.11 169.99 195.30 211.94 194.89&#xA;  Q 214.79 194.86 217.04 194.02&#xA;  A 1.06 1.05 87.3 0 0 217.69 193.30&#xA;  C 218.76 189.20 218.46 183.65 212.76 183.74&#xA;  Q 206.48 183.84 191.24 183.69"></path>
<path stroke="#95aba8" vector-effect="non-scaling-stroke" d="&#xA;  M 86.76 242.97&#xA;  C 82.57 242.98 80.74 244.83 80.73 249.10&#xA;  Q 80.64 278.91 80.95 308.67"></path>
<path stroke="#001c3c" vector-effect="non-scaling-stroke" d="&#xA;  M 477.98 510.57&#xA;  Q 484.53 529.87 489.53 550.12&#xA;  Q 491.04 556.24 491.40 562.55&#xA;  Q 492.69 584.82 492.06 607.36"></path>
<path stroke="#062442" vector-effect="non-scaling-stroke" d="&#xA;  M 492.06 607.36&#xA;  Q 492.04 608.47 490.25 608.47&#xA;  C 476.67 608.53 463.09 608.65 449.52 608.26&#xA;  Q 443.25 608.08 436.95 608.86"></path>
<path stroke="#223e59" vector-effect="non-scaling-stroke" d="&#xA;  M 436.95 608.86&#xA;  C 433.99 609.05 430.96 609.35 428.01 609.33&#xA;  Q 386.13 608.96 344.25 609.58&#xA;  C 306.48 610.13 268.62 609.49 230.83 609.47&#xA;  C 224.81 609.46 218.78 609.08 212.76 608.79&#xA;  C 210.24 608.66 207.49 609.20 204.73 609.05&#xA;  C 195.28 608.56 185.83 608.77 176.32 608.73&#xA;  A 1.74 1.72 86.4 0 1 174.61 607.21&#xA;  L 173.77 600.53"></path>
<path stroke="#5b7486" vector-effect="non-scaling-stroke" d="&#xA;  M 173.77 600.53&#xA;  L 173.53 559.41"></path>
<path stroke="#001c3c" vector-effect="non-scaling-stroke" d="&#xA;  M 173.53 559.41&#xA;  Q 178.08 555.33 179.41 551.70&#xA;  C 183.95 539.40 190.82 527.39 196.56 515.57&#xA;  Q 197.64 513.36 197.98 511.01"></path>
<path stroke="#1d4b60" vector-effect="non-scaling-stroke" d="&#xA;  M 425.34 425.29&#xA;  Q 445.20 427.63 464.99 423.20&#xA;  Q 472.25 421.57 482.26 416.00&#xA;  C 501.48 405.30 514.83 394.36 526.09 376.66"></path>
<path stroke="#06334a" vector-effect="non-scaling-stroke" d="&#xA;  M 573.38 199.01&#xA;  Q 574.93 218.29 574.59 237.76&#xA;  C 574.10 265.74 574.25 293.70 574.38 321.69&#xA;  C 574.50 346.60 574.10 371.48 574.49 396.40&#xA;  C 574.57 401.32 573.95 407.33 574.14 412.83&#xA;  Q 574.15 412.93 574.25 412.97&#xA;  Q 574.38 413.01 574.46 413.11&#xA;  Q 574.55 413.20 574.56 413.40&#xA;  Q 574.87 418.04 575.79 422.60&#xA;  C 576.42 425.70 575.68 428.95 578.65 432.05&#xA;  Q 579.01 432.42 579.10 432.92&#xA;  Q 579.98 437.85 577.26 442.06"></path>
<path stroke="#06334a" vector-effect="non-scaling-stroke" d="&#xA;  M 499.23 488.90&#xA;  C 491.83 492.58 483.04 498.59 480.03 505.85&#xA;  Q 479.09 508.12 477.98 510.57"></path>
<path stroke="#062442" vector-effect="non-scaling-stroke" d="&#xA;  M 477.98 510.57&#xA;  L 471.91 496.44"></path>
<path stroke="#1d4b60" vector-effect="non-scaling-stroke" d="&#xA;  M 560.73 312.18&#xA;  L 560.77 296.27"></path>
<path stroke="#5b828f" vector-effect="non-scaling-stroke" d="&#xA;  M 173.53 559.41&#xA;  C 173.17 554.45 172.67 549.69 172.83 544.53&#xA;  Q 173.26 531.22 171.55 518.20"></path>
<path stroke="#062442" vector-effect="non-scaling-stroke" d="&#xA;  M 359.33 402.32&#xA;  L 355.92 397.82"></path>
<path stroke="#173451" vector-effect="non-scaling-stroke" d="&#xA;  M 558.26 295.60&#xA;  C 556.11 301.64 550.17 302.46 544.60 304.06&#xA;  Q 544.06 304.22 544.14 304.78&#xA;  L 545.42 313.26"></path>
<path stroke="#173451" vector-effect="non-scaling-stroke" d="&#xA;  M 527.35 374.65&#xA;  Q 526.28 375.57 526.09 376.66"></path>
<path stroke="#062442" vector-effect="non-scaling-stroke" d="&#xA;  M 526.09 376.66&#xA;  Q 522.57 378.73 520.31 382.00&#xA;  C 518.25 384.98 514.75 388.14 512.04 390.31&#xA;  C 496.66 402.61 478.44 412.05 458.99 415.65&#xA;  C 426.90 421.59 392.51 414.14 363.07 399.42&#xA;  Q 360.99 398.37 357.08 397.01"></path>
<path stroke="#7a7a7f" vector-effect="non-scaling-stroke" d="&#xA;  M 367.12 382.97&#xA;  L 379.39 389.15"></path>
<path stroke="#7c8495" vector-effect="non-scaling-stroke" d="&#xA;  M 379.39 389.15&#xA;  C 399.52 397.86 421.66 403.23 443.52 399.63&#xA;  Q 472.03 394.94 495.54 378.27&#xA;  Q 503.56 372.57 508.05 365.71"></path>
<path stroke="#7e7a70" vector-effect="non-scaling-stroke" d="&#xA;  M 508.05 365.71&#xA;  L 509.55 363.76"></path>
<path stroke="#7c8495" vector-effect="non-scaling-stroke" d="&#xA;  M 509.55 363.76&#xA;  Q 521.22 349.62 523.90 331.79"></path>
<path stroke="#7a7a7f" vector-effect="non-scaling-stroke" d="&#xA;  M 523.90 331.79&#xA;  Q 525.74 320.69 522.78 310.28&#xA;  Q 522.63 309.76 522.18 310.04&#xA;  Q 515.91 313.90 505.23 318.96&#xA;  Q 481.09 330.41 470.70 335.02&#xA;  Q 470.27 335.21 470.29 335.67&#xA;  Q 470.69 349.33 463.86 360.63"></path>
<path stroke="#7c8495" vector-effect="non-scaling-stroke" d="&#xA;  M 463.86 360.63&#xA;  C 461.53 364.01 459.58 367.33 456.47 369.89&#xA;  C 439.16 384.11 417.51 382.83 398.27 372.95"></path>
<path stroke="#223e59" vector-effect="non-scaling-stroke" d="&#xA;  M 398.27 372.95&#xA;  Q 397.09 371.84 396.62 372.60&#xA;  Q 396.23 373.25 395.75 373.77"></path>
<path stroke="#7a7a7f" vector-effect="non-scaling-stroke" d="&#xA;  M 395.75 373.77&#xA;  L 392.69 374.79"></path>
<path stroke="#062442" vector-effect="non-scaling-stroke" d="&#xA;  M 378.06 370.83&#xA;  Q 375.45 369.36 367.97 366.54&#xA;  C 358.27 362.89 352.14 355.05 344.47 347.19"></path>
<path stroke="#95aba8" vector-effect="non-scaling-stroke" d="&#xA;  M 87.30 236.64&#xA;  C 81.88 235.99 80.98 231.55 81.01 226.59&#xA;  Q 81.12 206.84 80.73 186.99&#xA;  Q 80.72 186.29 81.80 184.29"></path>
<path stroke="#06334a" vector-effect="non-scaling-stroke" d="&#xA;  M 499.03 610.79&#xA;  L 498.13 607.75&#xA;  Q 497.98 607.26 497.53 607.03&#xA;  Q 495.02 605.73 492.06 607.36"></path>
<path stroke="#7da5ac" vector-effect="non-scaling-stroke" d="&#xA;  M 173.77 600.53&#xA;  Q 174.45 601.39 171.45 600.69"></path>
<path stroke="#285568" vector-effect="non-scaling-stroke" d="&#xA;  M 436.95 608.86&#xA;  L 440.76 609.00&#xA;  A 0.78 0.78 0.0 0 1 441.46 609.51&#xA;  C 443.60 615.43 450.38 621.49 454.89 626.07"></path>
<path stroke="#9caba5" vector-effect="non-scaling-stroke" d="&#xA;  M 396.28 373.92&#xA;  Q 396.26 373.65 395.75 373.77"></path>
<path stroke="#f6f1e1" vector-effect="non-scaling-stroke" d="&#xA;  M 523.90 331.79&#xA;  Q 523.25 329.84 521.88 330.92&#xA;  C 517.68 334.22 509.63 336.09 504.98 338.29&#xA;  C 490.70 345.05 481.71 351.75 470.18 359.21&#xA;  C 468.07 360.58 467.21 363.41 463.86 360.63"></path>
<path stroke="#faf1d2" vector-effect="non-scaling-stroke" d="&#xA;  M 509.55 363.76&#xA;  C 503.32 359.91 478.16 369.39 471.62 371.44&#xA;  C 467.47 372.75 464.42 372.44 461.05 370.04&#xA;  A 1.86 1.85 44.1 0 0 458.88 370.07&#xA;  L 453.53 374.07&#xA;  A 1.33 1.33 0.0 0 0 453.41 376.10&#xA;  C 462.73 384.93 473.54 381.47 484.74 380.14&#xA;  C 490.05 379.51 493.45 377.80 497.30 374.54&#xA;  C 500.15 372.12 503.78 369.75 506.30 366.49&#xA;  Q 506.63 366.07 507.06 365.90&#xA;  Q 507.74 365.63 508.05 365.71"></path>
<path stroke="#f6f1e1" vector-effect="non-scaling-stroke" d="&#xA;  M 379.39 389.15&#xA;  Q 388.85 386.27 393.71 382.00&#xA;  Q 397.73 378.47 396.28 373.92"></path>
<path stroke="#9eb5bb" vector-effect="non-scaling-stroke" d="&#xA;  M 396.28 373.92&#xA;  Q 396.92 372.79 398.27 372.95"></path>
<path stroke="#285568" vector-effect="non-scaling-stroke" d="&#xA;  M 128.22 361.72&#xA;  C 126.07 366.37 131.92 376.59 134.51 380.00&#xA;  C 144.49 393.14 158.65 406.19 173.89 413.36&#xA;  C 192.15 421.95 213.85 427.18 233.93 424.15&#xA;  Q 251.01 421.57 268.19 414.59"></path>
<path stroke="#223e59" vector-effect="non-scaling-stroke" d="&#xA;  M 268.19 414.59&#xA;  Q 287.69 408.46 306.32 400.47&#xA;  Q 307.39 400.01 309.35 399.48&#xA;  C 312.59 398.60 317.75 392.44 315.69 389.01&#xA;  Q 311.74 382.44 303.64 382.35"></path>
<path stroke="#9caba5" vector-effect="non-scaling-stroke" d="&#xA;  M 303.64 382.35&#xA;  Q 296.04 377.91 288.70 374.14&#xA;  C 286.91 373.22 285.38 373.51 283.44 373.46"></path>
<path stroke="#223e59" vector-effect="non-scaling-stroke" d="&#xA;  M 283.44 373.46&#xA;  Q 285.49 371.89 287.72 371.51"></path>
<path stroke="#396577" vector-effect="non-scaling-stroke" d="&#xA;  M 287.72 371.51&#xA;  C 300.20 371.68 314.73 367.70 319.36 354.69"></path>
<path stroke="#223e59" vector-effect="non-scaling-stroke" d="&#xA;  M 319.36 354.69&#xA;  C 325.26 345.28 323.76 330.38 322.99 319.04&#xA;  C 322.68 314.36 321.58 310.84 317.91 308.27&#xA;  C 313.66 305.28 307.66 305.55 305.21 310.63&#xA;  Q 304.28 312.56 304.18 316.55&#xA;  Q 303.94 325.39 304.20 334.28&#xA;  C 304.60 347.86 289.18 340.13 281.75 336.49&#xA;  Q 223.09 307.73 164.58 278.66&#xA;  Q 158.24 275.52 152.94 273.60&#xA;  C 139.66 268.81 124.00 272.18 115.15 283.65&#xA;  C 108.40 292.40 114.22 298.83 121.86 303.47&#xA;  Q 122.36 303.78 122.29 304.36&#xA;  C 120.06 323.83 121.56 342.66 128.22 361.72"></path>
<path stroke="#173451" vector-effect="non-scaling-stroke" d="&#xA;  M 319.36 354.69&#xA;  C 309.74 363.89 299.20 366.96 287.72 371.51"></path>
<path stroke="#7a7a7f" vector-effect="non-scaling-stroke" d="&#xA;  M 283.44 373.46&#xA;  L 275.21 374.33"></path>
<path stroke="#7c8495" vector-effect="non-scaling-stroke" d="&#xA;  M 275.21 374.33&#xA;  L 266.94 372.75&#xA;  Q 266.46 372.66 266.04 372.91&#xA;  C 249.25 382.76 221.70 384.55 208.64 367.58&#xA;  C 202.53 359.65 200.86 347.58 201.09 337.51&#xA;  Q 201.10 337.02 200.66 336.81&#xA;  L 167.81 321.60"></path>
<path stroke="#5b7486" vector-effect="non-scaling-stroke" d="&#xA;  M 167.81 321.60&#xA;  L 148.75 312.37"></path>
<path stroke="#7c8495" vector-effect="non-scaling-stroke" d="&#xA;  M 148.75 312.37&#xA;  L 145.34 309.78&#xA;  A 0.31 0.31 0.0 0 0 144.86 309.92&#xA;  C 138.41 328.16 144.18 349.31 156.06 364.09"></path>
<path stroke="#7e7a70" vector-effect="non-scaling-stroke" d="&#xA;  M 156.06 364.09&#xA;  Q 161.67 371.89 169.19 378.60"></path>
<path stroke="#7c8495" vector-effect="non-scaling-stroke" d="&#xA;  M 169.19 378.60&#xA;  C 194.94 397.44 227.97 405.56 259.49 398.72&#xA;  C 265.03 397.52 271.03 396.75 276.31 394.73&#xA;  C 284.00 391.79 291.37 389.28 298.29 384.86"></path>
<path stroke="#7a7a7f" vector-effect="non-scaling-stroke" d="&#xA;  M 298.29 384.86&#xA;  Q 300.39 383.01 303.64 382.35"></path>
<path stroke="#062442" vector-effect="non-scaling-stroke" d="&#xA;  M 268.19 414.59&#xA;  Q 266.75 413.34 265.47 413.71&#xA;  Q 258.05 415.90 247.00 416.95&#xA;  Q 218.89 419.62 191.64 412.50&#xA;  C 166.56 405.96 139.77 384.71 128.22 361.72"></path>
<path stroke="#d4e0d2" vector-effect="non-scaling-stroke" d="&#xA;  M 201.27 357.14&#xA;  Q 184.24 346.85 173.74 343.01&#xA;  Q 161.49 338.53 148.30 333.83"></path>
<path stroke="#d7ebe8" vector-effect="non-scaling-stroke" d="&#xA;  M 148.75 312.37&#xA;  Q 146.27 323.27 148.30 333.83"></path>
<path stroke="#f6f1e1" vector-effect="non-scaling-stroke" d="&#xA;  M 148.30 333.83&#xA;  Q 145.54 337.89 146.20 342.41&#xA;  Q 146.28 342.94 146.71 343.28&#xA;  L 148.26 344.47&#xA;  Q 148.65 344.77 148.87 345.22&#xA;  Q 149.76 347.08 151.76 347.23&#xA;  Q 152.23 347.26 152.61 347.55&#xA;  C 154.10 348.66 155.68 348.76 157.20 349.72&#xA;  C 161.30 352.31 164.65 351.13 168.64 352.74&#xA;  C 172.37 354.24 176.25 355.14 179.88 356.71&#xA;  Q 190.30 361.22 201.78 361.96&#xA;  Q 202.33 361.99 202.41 361.45&#xA;  Q 202.96 358.17 201.27 357.14"></path>
<path stroke="#d7ebe8" vector-effect="non-scaling-stroke" d="&#xA;  M 201.27 357.14&#xA;  L 199.74 338.80&#xA;  Q 199.69 338.23 199.18 337.98&#xA;  L 167.02 322.71&#xA;  A 0.46 0.46 0.0 0 1 167.07 321.85&#xA;  L 167.81 321.60"></path>
<path stroke="#f6f1e1" vector-effect="non-scaling-stroke" d="&#xA;  M 275.21 374.33&#xA;  L 277.90 374.50&#xA;  Q 278.34 374.53 278.56 374.91&#xA;  L 278.75 375.22&#xA;  A 0.39 0.39 0.0 0 1 278.46 375.80&#xA;  Q 276.39 376.04 276.80 377.71&#xA;  C 278.28 383.64 282.44 384.92 287.93 385.32&#xA;  C 291.32 385.58 294.25 383.81 297.48 383.63&#xA;  Q 298.42 383.58 298.29 384.86"></path>
<path stroke="#faf1d2" vector-effect="non-scaling-stroke" d="&#xA;  M 169.19 378.60&#xA;  Q 169.20 377.78 169.43 377.65&#xA;  A 1.73 1.70 42.0 0 1 171.02 377.58&#xA;  C 182.31 382.89 192.68 385.89 204.56 379.75&#xA;  C 208.48 377.72 209.74 374.51 207.18 370.72&#xA;  Q 206.80 370.16 206.20 370.48&#xA;  Q 204.61 371.36 204.23 373.29&#xA;  A 2.08 2.07 -78.6 0 1 201.77 374.93&#xA;  Q 185.63 371.59 170.57 366.74&#xA;  C 167.10 365.62 161.97 364.58 157.76 362.22&#xA;  Q 157.36 361.99 157.11 362.38&#xA;  L 156.06 364.09"></path>
<path stroke="#7e8599" vector-effect="non-scaling-stroke" d="&#xA;  M 224.25 349.39&#xA;  C 224.81 355.23 229.64 366.54 236.72 356.83&#xA;  Q 236.99 356.45 236.61 356.19&#xA;  L 225.57 348.61&#xA;  A 0.85 0.84 14.3 0 0 224.25 349.39"></path>
<path stroke="#7c8495" vector-effect="non-scaling-stroke" d="&#xA;  M 428.35 356.60&#xA;  C 430.32 358.85 433.86 363.39 437.27 360.05&#xA;  Q 441.39 356.02 443.01 350.41&#xA;  A 1.13 1.13 0.0 0 0 441.92 348.97&#xA;  C 438.01 348.99 432.44 354.05 428.53 355.78&#xA;  A 0.52 0.52 0.0 0 0 428.35 356.60"></path>
<path stroke="#7e827f" vector-effect="non-scaling-stroke" d="&#xA;  M 269.97 480.68&#xA;  Q 263.19 484.84 257.53 490.34"></path>
<path stroke="#7e8599" vector-effect="non-scaling-stroke" d="&#xA;  M 257.53 490.34&#xA;  C 244.48 502.69 235.52 520.16 229.27 537.26&#xA;  Q 225.90 546.49 216.66 559.44&#xA;  Q 216.35 559.87 216.36 560.39&#xA;  L 216.61 573.00"></path>
<path stroke="#7f858a" vector-effect="non-scaling-stroke" d="&#xA;  M 216.61 573.00&#xA;  L 216.59 582.85&#xA;  Q 216.59 583.42 217.16 583.42&#xA;  C 291.70 583.85 366.21 583.97 440.73 583.16"></path>
<path stroke="#7e827f" vector-effect="non-scaling-stroke" d="&#xA;  M 440.73 583.16&#xA;  L 452.41 582.84&#xA;  Q 452.98 582.82 452.96 582.25&#xA;  L 452.52 571.71"></path>
<path stroke="#7e8599" vector-effect="non-scaling-stroke" d="&#xA;  M 452.52 571.71&#xA;  L 452.56 551.80&#xA;  A 1.62 1.58 28.4 0 0 452.28 550.90&#xA;  C 446.69 542.52 443.80 531.96 440.08 522.60&#xA;  Q 434.53 508.65 431.71 504.76&#xA;  Q 413.09 479.10 383.07 467.69&#xA;  C 375.52 464.82 370.09 464.12 360.23 462.56&#xA;  C 340.25 459.39 319.66 461.63 301.74 465.75&#xA;  Q 285.34 469.52 269.97 480.68"></path>
<path stroke="#fcfae5" vector-effect="non-scaling-stroke" d="&#xA;  M 452.52 571.71&#xA;  Q 450.87 572.25 450.55 570.66&#xA;  A 0.74 0.73 84.2 0 0 449.83 570.07&#xA;  C 448.31 570.07 446.78 569.73 445.37 569.70&#xA;  C 431.24 569.46 416.68 568.73 403.00 568.74&#xA;  C 358.11 568.79 313.21 569.01 268.32 568.97&#xA;  Q 239.86 568.93 220.44 570.15&#xA;  Q 218.74 570.26 219.34 572.26"></path>
<path stroke="#fdfdf0" vector-effect="non-scaling-stroke" d="&#xA;  M 219.34 572.26&#xA;  Q 218.59 573.64 216.61 573.00"></path>
<path stroke="#fcfae5" vector-effect="non-scaling-stroke" d="&#xA;  M 257.53 490.34&#xA;  Q 259.13 492.05 260.74 491.52&#xA;  Q 267.29 489.36 272.61 488.27&#xA;  C 282.87 486.18 292.98 483.73 303.14 481.28&#xA;  C 322.39 476.65 342.28 475.54 361.84 478.53&#xA;  C 376.17 480.72 388.01 484.79 401.22 487.41&#xA;  Q 405.74 488.30 406.90 484.68&#xA;  A 1.00 1.00 0.0 0 0 406.29 483.44&#xA;  C 396.40 479.84 386.41 475.73 376.21 473.14&#xA;  C 361.44 469.38 347.24 467.28 332.31 468.61&#xA;  Q 326.57 469.12 318.12 470.29&#xA;  C 307.32 471.79 296.53 475.28 285.81 478.01&#xA;  C 282.17 478.94 276.81 479.27 272.40 481.76&#xA;  Q 271.97 482.00 271.49 481.88&#xA;  Q 269.64 481.43 269.97 480.68"></path>
<path stroke="#fcfad6" vector-effect="non-scaling-stroke" d="&#xA;  M 440.73 583.16&#xA;  Q 438.20 583.23 437.02 581.11&#xA;  Q 436.77 580.67 436.27 580.63&#xA;  Q 429.66 580.18 423.06 579.99&#xA;  C 420.30 579.90 417.99 578.88 415.19 578.51&#xA;  Q 414.81 578.46 414.51 578.22&#xA;  Q 414.09 577.88 413.68 578.16&#xA;  Q 413.27 578.45 412.77 578.47&#xA;  Q 408.56 578.66 404.72 577.19&#xA;  C 400.87 575.72 396.93 576.26 392.99 576.68&#xA;  C 390.47 576.95 388.48 575.78 386.22 575.80&#xA;  Q 383.39 575.83 380.56 575.67&#xA;  C 376.46 575.44 372.33 576.23 368.01 575.68&#xA;  C 366.24 575.46 364.31 576.58 362.31 576.30&#xA;  C 352.27 574.92 343.89 575.93 334.55 576.23&#xA;  C 331.63 576.32 328.76 575.05 325.25 575.73&#xA;  C 310.57 578.57 294.20 573.78 281.45 578.00&#xA;  Q 278.81 578.87 275.88 579.07&#xA;  C 272.35 579.30 269.01 580.21 265.60 580.25&#xA;  Q 250.63 580.40 235.67 580.33&#xA;  C 232.18 580.31 226.51 581.14 221.68 580.22&#xA;  Q 221.17 580.12 220.91 579.67&#xA;  C 219.58 577.46 219.88 574.71 219.34 572.26"></path>
<path stroke="#7e8599" vector-effect="non-scaling-stroke" d="&#xA;  M 249.52 523.72&#xA;  Q 235.46 532.94 228.84 547.28"></path>
<path stroke="#fafcfb" vector-effect="non-scaling-stroke" d="&#xA;  M 228.84 547.28&#xA;  Q 225.97 551.09 224.79 555.10&#xA;  A 1.33 1.32 -78.8 0 0 225.91 556.79&#xA;  C 235.60 557.87 245.15 558.88 255.01 559.04&#xA;  Q 282.28 559.50 299.44 559.16&#xA;  Q 305.94 559.04 310.81 560.77&#xA;  C 312.23 561.28 315.15 559.96 316.75 559.87&#xA;  Q 330.28 559.17 343.75 560.71&#xA;  C 351.22 561.57 362.79 560.42 373.53 561.42&#xA;  C 380.66 562.08 386.98 561.08 393.74 560.67&#xA;  Q 395.82 560.55 397.97 561.40&#xA;  C 403.56 563.62 407.73 562.57 413.10 561.92&#xA;  Q 413.44 561.88 413.49 562.22&#xA;  L 413.55 562.67&#xA;  A 0.21 0.20 -10.3 0 0 413.80 562.84&#xA;  Q 418.49 561.70 423.28 562.02&#xA;  A 1.55 1.55 0.0 0 0 424.92 560.31&#xA;  Q 424.39 555.35 421.49 551.32&#xA;  Q 421.17 550.87 420.63 550.79&#xA;  Q 418.17 550.41 416.85 548.06&#xA;  Q 416.61 547.63 416.11 547.68&#xA;  Q 415.02 547.79 413.96 547.48&#xA;  Q 412.93 547.18 413.99 547.06&#xA;  L 415.75 546.84"></path>
<path stroke="#7e8599" vector-effect="non-scaling-stroke" d="&#xA;  M 415.75 546.84&#xA;  L 445.54 547.44&#xA;  Q 446.27 547.45 445.97 546.79&#xA;  Q 439.78 533.16 427.48 523.42"></path>
<path stroke="#fcf2d6" vector-effect="non-scaling-stroke" d="&#xA;  M 427.48 523.42&#xA;  Q 433.17 519.24 434.05 513.26&#xA;  Q 434.25 511.88 432.87 511.80&#xA;  Q 432.40 511.77 432.12 511.40&#xA;  L 428.62 506.72&#xA;  Q 428.32 506.32 427.83 506.20&#xA;  Q 388.88 497.09 349.00 494.01&#xA;  C 338.14 493.17 323.42 494.04 310.93 496.33&#xA;  Q 282.61 501.54 254.28 506.74&#xA;  C 252.48 507.07 243.97 506.88 245.57 511.19&#xA;  Q 247.30 515.80 247.03 519.77&#xA;  A 1.41 1.40 -60.9 0 0 247.28 520.66&#xA;  L 249.52 523.72"></path>
<path stroke="#7e7a70" vector-effect="non-scaling-stroke" d="&#xA;  M 427.48 523.42&#xA;  C 400.77 503.09 361.19 498.20 327.71 500.37&#xA;  C 313.84 501.27 300.36 504.55 286.52 508.31&#xA;  Q 266.49 513.75 249.52 523.72"></path>
<path stroke="#7c8495" vector-effect="non-scaling-stroke" d="&#xA;  M 415.75 546.84&#xA;  L 228.84 547.28"></path>
</g>
<path fill="#fcfdff" d="&#xA;  M 0.00 0.00&#xA;  L 668.00 0.00&#xA;  L 668.00 692.00&#xA;  L 0.00 692.00&#xA;  L 0.00 0.00&#xA;  Z&#xA;  M 258.97 185.71&#xA;  Q 259.22 120.83 259.25 55.97&#xA;  C 259.26 44.98 258.43 37.09 251.81 29.46&#xA;  Q 241.42 17.49 224.75 17.48&#xA;  Q 171.84 17.47 118.94 17.49&#xA;  C 104.24 17.50 91.64 28.57 88.44 42.30&#xA;  Q 87.48 46.42 87.49 62.23&#xA;  Q 87.52 103.46 87.43 148.45&#xA;  A 0.30 0.30 0.0 0 1 87.12 148.75&#xA;  C 77.34 148.73 64.38 147.54 55.39 149.70&#xA;  C 38.70 153.72 27.09 167.56 24.98 184.25&#xA;  C 24.15 190.85 24.98 201.92 24.99 208.92&#xA;  Q 25.08 285.43 24.89 361.93&#xA;  C 24.84 385.20 25.15 408.48 25.14 431.76&#xA;  C 25.12 448.04 33.61 457.48 46.91 465.35&#xA;  Q 84.13 487.38 121.56 509.02&#xA;  Q 127.37 512.38 132.21 517.05&#xA;  Q 135.27 519.99 135.43 525.24&#xA;  C 136.39 557.35 135.71 589.58 135.77 621.72&#xA;  Q 135.79 629.76 137.10 634.52&#xA;  C 141.40 650.08 154.12 662.41 169.71 666.56&#xA;  Q 175.16 668.02 186.42 668.06&#xA;  C 285.26 668.41 384.10 668.21 482.94 668.13&#xA;  C 511.16 668.10 533.99 648.19 534.28 619.25&#xA;  Q 534.74 572.72 534.43 526.19&#xA;  C 534.39 519.48 537.37 515.72 542.83 512.34&#xA;  Q 582.27 487.95 621.96 463.99&#xA;  C 632.00 457.93 640.39 448.09 641.25 436.15&#xA;  C 642.13 424.05 641.51 409.27 641.51 400.05&#xA;  Q 641.48 300.24 641.52 200.43&#xA;  C 641.52 188.52 642.84 176.81 635.26 166.26&#xA;  C 626.93 154.69 615.14 148.55 600.94 148.74&#xA;  Q 589.92 148.89 578.82 149.06&#xA;  Q 578.28 149.07 578.28 148.53&#xA;  Q 578.23 99.89 578.13 51.25&#xA;  C 578.10 35.40 572.33 23.84 557.46 17.37&#xA;  C 551.72 14.88 545.12 14.63 538.75 14.68&#xA;  Q 489.75 15.08 440.75 14.56&#xA;  Q 429.12 14.43 420.34 20.36&#xA;  C 409.99 27.35 406.43 37.27 406.12 49.39&#xA;  C 405.47 75.44 405.84 101.50 405.66 127.57&#xA;  Q 405.45 156.77 406.37 185.07&#xA;  Q 406.41 186.24 405.23 186.24&#xA;  L 259.51 186.25&#xA;  Q 258.96 186.25 258.97 185.71&#xA;  Z"></path>
<path fill="#000d33" d="&#xA;  M 259.51 186.25&#xA;  L 405.23 186.24&#xA;  Q 406.41 186.24 406.37 185.07&#xA;  Q 405.45 156.77 405.66 127.57&#xA;  C 405.84 101.50 405.47 75.44 406.12 49.39&#xA;  C 406.43 37.27 409.99 27.35 420.34 20.36&#xA;  Q 429.12 14.43 440.75 14.56&#xA;  Q 489.75 15.08 538.75 14.68&#xA;  C 545.12 14.63 551.72 14.88 557.46 17.37&#xA;  C 572.33 23.84 578.10 35.40 578.13 51.25&#xA;  Q 578.23 99.89 578.28 148.53&#xA;  Q 578.28 149.07 578.82 149.06&#xA;  Q 589.92 148.89 600.94 148.74&#xA;  C 615.14 148.55 626.93 154.69 635.26 166.26&#xA;  C 642.84 176.81 641.52 188.52 641.52 200.43&#xA;  Q 641.48 300.24 641.51 400.05&#xA;  C 641.51 409.27 642.13 424.05 641.25 436.15&#xA;  C 640.39 448.09 632.00 457.93 621.96 463.99&#xA;  Q 582.27 487.95 542.83 512.34&#xA;  C 537.37 515.72 534.39 519.48 534.43 526.19&#xA;  Q 534.74 572.72 534.28 619.25&#xA;  C 533.99 648.19 511.16 668.10 482.94 668.13&#xA;  C 384.10 668.21 285.26 668.41 186.42 668.06&#xA;  Q 175.16 668.02 169.71 666.56&#xA;  C 154.12 662.41 141.40 650.08 137.10 634.52&#xA;  Q 135.79 629.76 135.77 621.72&#xA;  C 135.71 589.58 136.39 557.35 135.43 525.24&#xA;  Q 135.27 519.99 132.21 517.05&#xA;  Q 127.37 512.38 121.56 509.02&#xA;  Q 84.13 487.38 46.91 465.35&#xA;  C 33.61 457.48 25.12 448.04 25.14 431.76&#xA;  C 25.15 408.48 24.84 385.20 24.89 361.93&#xA;  Q 25.08 285.43 24.99 208.92&#xA;  C 24.98 201.92 24.15 190.85 24.98 184.25&#xA;  C 27.09 167.56 38.70 153.72 55.39 149.70&#xA;  C 64.38 147.54 77.34 148.73 87.12 148.75&#xA;  A 0.30 0.30 0.0 0 0 87.43 148.45&#xA;  Q 87.52 103.46 87.49 62.23&#xA;  Q 87.48 46.42 88.44 42.30&#xA;  C 91.64 28.57 104.24 17.50 118.94 17.49&#xA;  Q 171.84 17.47 224.75 17.48&#xA;  Q 241.42 17.49 251.81 29.46&#xA;  C 258.43 37.09 259.26 44.98 259.25 55.97&#xA;  Q 259.22 120.83 258.97 185.71&#xA;  Q 258.96 186.25 259.51 186.25&#xA;  Z&#xA;  M 153.81 52.54&#xA;  Q 144.61 53.18 135.00 53.11&#xA;  C 124.15 53.03 121.47 58.59 121.49 68.90&#xA;  Q 121.51 75.95 121.51 83.06&#xA;  L 121.72 147.88&#xA;  Q 121.72 148.46 122.30 148.46&#xA;  L 125.75 148.48&#xA;  L 154.97 148.70&#xA;  Q 155.48 148.70 155.49 148.18&#xA;  L 155.53 135.00&#xA;  L 155.69 105.96&#xA;  Q 155.69 105.33 156.32 105.33&#xA;  L 181.68 105.48&#xA;  Q 182.27 105.48 182.27 106.07&#xA;  L 182.37 134.84&#xA;  L 182.78 147.71&#xA;  Q 182.80 148.25 183.34 148.26&#xA;  L 212.27 148.68&#xA;  L 224.00 148.72&#xA;  Q 224.52 148.72 224.52 148.21&#xA;  Q 224.39 106.12 224.79 64.02&#xA;  C 224.86 56.94 221.16 52.35 213.76 52.66&#xA;  Q 201.40 53.17 189.02 53.07&#xA;  Q 186.97 53.26 186.70 52.37&#xA;  Q 186.59 52.01 186.21 51.98&#xA;  Q 169.92 50.77 153.81 52.54&#xA;  Z&#xA;  M 441.07 59.74&#xA;  L 441.00 147.45&#xA;  A 1.58 1.58 0.0 0 0 442.60 149.04&#xA;  L 477.54 148.68&#xA;  Q 478.14 148.67 478.15 148.06&#xA;  L 478.19 134.78&#xA;  L 478.49 106.06&#xA;  Q 478.49 105.48 479.08 105.48&#xA;  L 503.72 105.43&#xA;  Q 504.41 105.43 504.41 106.12&#xA;  L 504.74 136.20&#xA;  L 504.76 147.77&#xA;  A 0.98 0.98 0.0 0 0 505.74 148.75&#xA;  L 543.30 148.75&#xA;  Q 543.95 148.75 543.95 148.11&#xA;  L 543.98 143.25&#xA;  Q 543.91 88.97 544.22 63.01&#xA;  C 544.38 49.64 534.08 51.74 525.22 51.74&#xA;  Q 489.57 51.76 453.91 51.74&#xA;  C 447.05 51.74 443.67 53.59 441.07 59.74&#xA;  Z&#xA;  M 60.70 270.49&#xA;  Q 59.42 281.82 60.42 293.26&#xA;  L 60.49 315.45&#xA;  C 60.28 319.82 60.64 323.41 60.02 328.14&#xA;  Q 59.54 331.75 60.74 335.16&#xA;  L 60.71 364.74&#xA;  Q 58.73 376.46 60.96 387.80&#xA;  Q 60.73 402.52 60.79 417.33&#xA;  C 60.81 423.59 60.78 433.76 70.24 432.89&#xA;  C 100.63 449.64 130.78 466.74 161.06 483.70&#xA;  Q 166.62 486.82 174.75 492.04&#xA;  L 172.20 493.36&#xA;  Q 171.76 493.59 171.69 494.07&#xA;  Q 169.69 506.31 171.55 518.20&#xA;  L 171.45 600.69&#xA;  Q 171.11 610.39 171.28 620.01&#xA;  C 171.37 625.69 176.34 626.19 180.50 626.25&#xA;  Q 222.64 626.84 280.81 626.35&#xA;  C 328.15 625.95 393.80 626.50 454.89 626.07&#xA;  L 497.87 625.87&#xA;  A 1.20 1.20 0.0 0 0 499.06 624.67&#xA;  L 499.03 610.79&#xA;  L 499.23 488.90&#xA;  Q 507.35 483.19 514.69 478.69&#xA;  Q 543.43 461.03 577.26 442.06&#xA;  C 584.82 437.50 594.21 433.16 602.79 431.69&#xA;  Q 604.38 431.41 604.42 429.69&#xA;  C 606.05 352.86 605.43 275.84 604.58 199.01&#xA;  L 604.01 185.71&#xA;  A 1.63 1.62 -1.1 0 0 602.38 184.15&#xA;  L 440.54 183.92&#xA;  A 0.88 0.88 0.0 0 0 439.66 184.83&#xA;  Q 440.03 197.34 439.50 210.33&#xA;  C 439.02 222.07 433.46 223.67 422.45 223.34&#xA;  Q 414.10 223.10 405.72 223.36&#xA;  C 404.57 222.78 403.32 222.26 401.94 222.28&#xA;  Q 338.47 223.25 275.00 222.41&#xA;  Q 272.87 222.39 270.36 223.99&#xA;  Q 256.59 223.07 237.24 223.31&#xA;  C 227.93 223.43 227.22 217.01 227.28 209.12&#xA;  Q 227.37 196.83 226.96 184.51&#xA;  Q 226.94 184.01 226.45 184.05&#xA;  L 218.80 184.64&#xA;  Q 218.37 184.68 217.98 184.49&#xA;  Q 213.15 182.10 207.86 182.71&#xA;  C 201.65 183.43 196.91 183.49 191.24 183.69&#xA;  Q 160.27 183.85 129.29 183.67&#xA;  C 117.05 183.60 102.72 183.85 89.41 183.73&#xA;  C 86.99 183.71 84.46 184.76 81.80 184.29&#xA;  Q 76.25 185.63 72.27 184.07&#xA;  Q 70.70 182.74 68.79 182.27&#xA;  Q 68.27 182.14 67.80 182.40&#xA;  C 60.63 186.32 61.42 191.36 61.25 200.01&#xA;  Q 60.53 235.25 60.70 270.49&#xA;  Z"></path>
<path fill="#0c3b50" d="&#xA;  M 189.02 53.07&#xA;  Q 171.61 53.53 153.81 52.54&#xA;  Q 169.92 50.77 186.21 51.98&#xA;  Q 186.59 52.01 186.70 52.37&#xA;  Q 186.97 53.26 189.02 53.07&#xA;  Z"></path>
<path fill="#f8fbf7" d="&#xA;  M 543.98 143.25&#xA;  Q 541.77 141.91 542.91 136.98&#xA;  A 1.49 1.48 -81.8 0 0 541.55 135.16&#xA;  L 525.50 134.23&#xA;  Q 525.12 134.21 525.11 133.82&#xA;  Q 524.48 111.19 525.11 88.56&#xA;  C 525.32 81.17 526.88 63.57 515.00 63.64&#xA;  Q 495.82 63.76 476.67 63.79&#xA;  C 462.81 63.82 460.31 69.49 459.93 82.44&#xA;  Q 459.18 108.10 459.69 133.84&#xA;  Q 459.70 134.37 459.17 134.39&#xA;  L 445.61 134.75&#xA;  Q 446.71 126.23 446.42 117.52&#xA;  C 445.95 103.48 445.98 89.61 446.24 75.56&#xA;  Q 446.36 69.27 446.92 66.22&#xA;  Q 446.95 66.03 447.03 65.26&#xA;  Q 447.10 64.62 447.79 64.19&#xA;  Q 448.22 63.93 448.01 63.46&#xA;  Q 447.09 61.46 447.81 59.31&#xA;  A 0.54 0.54 0.0 0 0 447.17 58.62&#xA;  L 444.43 59.34&#xA;  Q 443.98 59.45 443.59 59.21&#xA;  Q 442.55 58.56 441.07 59.74&#xA;  C 443.67 53.59 447.05 51.74 453.91 51.74&#xA;  Q 489.57 51.76 525.22 51.74&#xA;  C 534.08 51.74 544.38 49.64 544.22 63.01&#xA;  Q 543.91 88.97 543.98 143.25&#xA;  Z"></path>
<path fill="#f8fbf7" d="&#xA;  M 212.27 148.68&#xA;  L 210.58 148.18&#xA;  A 0.68 0.68 0.0 0 1 210.74 146.85&#xA;  L 218.98 146.41&#xA;  A 2.96 2.96 0.0 0 0 221.77 143.21&#xA;  Q 221.50 139.95 222.67 136.96&#xA;  Q 223.35 135.26 221.51 135.17&#xA;  L 202.84 134.29&#xA;  Q 202.30 134.26 202.30 133.73&#xA;  Q 202.21 106.74 201.80 79.75&#xA;  C 201.75 76.65 202.03 72.85 200.58 70.24&#xA;  C 198.04 65.68 190.52 65.05 186.25 65.17&#xA;  C 174.13 65.53 161.92 65.80 149.81 65.17&#xA;  C 137.80 64.54 134.94 66.53 129.64 76.90&#xA;  L 127.51 81.44&#xA;  A 1.05 1.02 6.5 0 1 126.76 82.02&#xA;  L 121.51 83.06&#xA;  Q 121.51 75.95 121.49 68.90&#xA;  C 121.47 58.59 124.15 53.03 135.00 53.11&#xA;  Q 144.61 53.18 153.81 52.54&#xA;  Q 171.61 53.53 189.02 53.07&#xA;  Q 201.40 53.17 213.76 52.66&#xA;  C 221.16 52.35 224.86 56.94 224.79 64.02&#xA;  Q 224.39 106.12 224.52 148.21&#xA;  Q 224.52 148.72 224.00 148.72&#xA;  L 212.27 148.68&#xA;  Z"></path>
<path fill="#fdfce0" d="&#xA;  M 445.61 134.75&#xA;  Q 444.60 134.65 444.03 134.80&#xA;  Q 443.43 134.95 443.36 135.90&#xA;  Q 443.02 140.59 443.74 145.16&#xA;  A 1.49 1.47 84.1 0 0 445.26 146.41&#xA;  Q 451.79 146.12 458.74 146.14&#xA;  C 460.49 146.14 461.76 146.89 463.56 146.78&#xA;  Q 469.09 146.46 474.77 146.15&#xA;  Q 475.32 146.12 475.38 145.58&#xA;  L 476.58 134.68&#xA;  Q 477.54 134.92 478.19 134.78&#xA;  L 478.15 148.06&#xA;  Q 478.14 148.67 477.54 148.68&#xA;  L 442.60 149.04&#xA;  A 1.58 1.58 0.0 0 1 441.00 147.45&#xA;  L 441.07 59.74&#xA;  Q 442.55 58.56 443.59 59.21&#xA;  Q 443.98 59.45 444.43 59.34&#xA;  L 447.17 58.62&#xA;  A 0.54 0.54 0.0 0 1 447.81 59.31&#xA;  Q 447.09 61.46 448.01 63.46&#xA;  Q 448.22 63.93 447.79 64.19&#xA;  Q 447.10 64.62 447.03 65.26&#xA;  Q 446.95 66.03 446.92 66.22&#xA;  Q 446.36 69.27 446.24 75.56&#xA;  C 445.98 89.61 445.95 103.48 446.42 117.52&#xA;  Q 446.71 126.23 445.61 134.75&#xA;  Z"></path>
<path fill="#fbe6ac" d="&#xA;  M 543.98 143.25&#xA;  L 543.95 148.11&#xA;  Q 543.95 148.75 543.30 148.75&#xA;  L 505.74 148.75&#xA;  A 0.98 0.98 0.0 0 1 504.76 147.77&#xA;  L 504.74 136.20&#xA;  Q 511.77 134.25 519.69 134.53&#xA;  Q 520.29 134.55 520.29 133.94&#xA;  Q 520.53 107.34 520.85 80.75&#xA;  C 520.92 75.03 517.83 70.33 511.76 70.45&#xA;  C 497.73 70.73 486.21 70.99 475.74 70.49&#xA;  C 468.89 70.16 464.58 73.18 464.34 80.52&#xA;  Q 463.47 106.53 463.17 132.57&#xA;  Q 463.16 133.03 462.76 133.24&#xA;  L 461.95 133.66&#xA;  A 0.34 0.34 0.0 0 0 462.13 134.31&#xA;  C 465.86 134.10 474.64 133.25 476.58 134.68&#xA;  L 475.38 145.58&#xA;  Q 475.32 146.12 474.77 146.15&#xA;  Q 469.09 146.46 463.56 146.78&#xA;  C 461.76 146.89 460.49 146.14 458.74 146.14&#xA;  Q 451.79 146.12 445.26 146.41&#xA;  A 1.49 1.47 84.1 0 1 443.74 145.16&#xA;  Q 443.02 140.59 443.36 135.90&#xA;  Q 443.43 134.95 444.03 134.80&#xA;  Q 444.60 134.65 445.61 134.75&#xA;  L 459.17 134.39&#xA;  Q 459.70 134.37 459.69 133.84&#xA;  Q 459.18 108.10 459.93 82.44&#xA;  C 460.31 69.49 462.81 63.82 476.67 63.79&#xA;  Q 495.82 63.76 515.00 63.64&#xA;  C 526.88 63.57 525.32 81.17 525.11 88.56&#xA;  Q 524.48 111.19 525.11 133.82&#xA;  Q 525.12 134.21 525.50 134.23&#xA;  L 541.55 135.16&#xA;  A 1.49 1.48 -81.8 0 1 542.91 136.98&#xA;  Q 541.77 141.91 543.98 143.25&#xA;  Z"></path>
<path fill="#fbe6ac" d="&#xA;  M 212.27 148.68&#xA;  L 183.34 148.26&#xA;  Q 182.80 148.25 182.78 147.71&#xA;  L 182.37 134.84&#xA;  L 196.76 134.01&#xA;  Q 197.28 133.98 197.26 133.46&#xA;  C 196.52 115.71 197.57 96.70 196.22 78.22&#xA;  C 195.79 72.47 191.15 71.45 186.25 71.42&#xA;  C 175.31 71.34 164.38 71.25 153.45 70.96&#xA;  C 136.41 70.50 131.03 72.74 132.10 91.06&#xA;  Q 131.49 92.21 129.05 90.87&#xA;  A 1.64 1.64 0.0 0 1 128.21 89.24&#xA;  L 129.64 76.90&#xA;  C 134.94 66.53 137.80 64.54 149.81 65.17&#xA;  C 161.92 65.80 174.13 65.53 186.25 65.17&#xA;  C 190.52 65.05 198.04 65.68 200.58 70.24&#xA;  C 202.03 72.85 201.75 76.65 201.80 79.75&#xA;  Q 202.21 106.74 202.30 133.73&#xA;  Q 202.30 134.26 202.84 134.29&#xA;  L 221.51 135.17&#xA;  Q 223.35 135.26 222.67 136.96&#xA;  Q 221.50 139.95 221.77 143.21&#xA;  A 2.96 2.96 0.0 0 1 218.98 146.41&#xA;  L 210.74 146.85&#xA;  A 0.68 0.68 0.0 0 0 210.58 148.18&#xA;  L 212.27 148.68&#xA;  Z"></path>
<path fill="#fcfdff" d="&#xA;  M 504.74 136.20&#xA;  L 504.41 106.12&#xA;  Q 504.41 105.43 503.72 105.43&#xA;  L 479.08 105.48&#xA;  Q 478.49 105.48 478.49 106.06&#xA;  L 478.19 134.78&#xA;  Q 477.54 134.92 476.58 134.68&#xA;  C 474.64 133.25 465.86 134.10 462.13 134.31&#xA;  A 0.34 0.34 0.0 0 1 461.95 133.66&#xA;  L 462.76 133.24&#xA;  Q 463.16 133.03 463.17 132.57&#xA;  Q 463.47 106.53 464.34 80.52&#xA;  C 464.58 73.18 468.89 70.16 475.74 70.49&#xA;  C 486.21 70.99 497.73 70.73 511.76 70.45&#xA;  C 517.83 70.33 520.92 75.03 520.85 80.75&#xA;  Q 520.53 107.34 520.29 133.94&#xA;  Q 520.29 134.55 519.69 134.53&#xA;  Q 511.77 134.25 504.74 136.20&#xA;  Z"></path>
<path fill="#fcfdff" d="&#xA;  M 182.37 134.84&#xA;  L 182.27 106.07&#xA;  Q 182.27 105.48 181.68 105.48&#xA;  L 156.32 105.33&#xA;  Q 155.69 105.33 155.69 105.96&#xA;  L 155.53 135.00&#xA;  L 132.61 134.78&#xA;  L 132.10 91.06&#xA;  C 131.03 72.74 136.41 70.50 153.45 70.96&#xA;  C 164.38 71.25 175.31 71.34 186.25 71.42&#xA;  C 191.15 71.45 195.79 72.47 196.22 78.22&#xA;  C 197.57 96.70 196.52 115.71 197.26 133.46&#xA;  Q 197.28 133.98 196.76 134.01&#xA;  L 182.37 134.84&#xA;  Z"></path>
<path fill="#fbf7cb" d="&#xA;  M 129.64 76.90&#xA;  L 128.21 89.24&#xA;  A 1.64 1.64 0.0 0 0 129.05 90.87&#xA;  Q 131.49 92.21 132.10 91.06&#xA;  L 132.61 134.78&#xA;  L 125.39 135.05&#xA;  A 2.47 2.47 0.0 0 0 123.09 138.13&#xA;  L 125.75 148.48&#xA;  L 122.30 148.46&#xA;  Q 121.72 148.46 121.72 147.88&#xA;  L 121.51 83.06&#xA;  L 126.76 82.02&#xA;  A 1.05 1.02 6.5 0 0 127.51 81.44&#xA;  L 129.64 76.90&#xA;  Z"></path>
<path fill="#fbe6ac" d="&#xA;  M 132.61 134.78&#xA;  L 155.53 135.00&#xA;  L 155.49 148.18&#xA;  Q 155.48 148.70 154.97 148.70&#xA;  L 125.75 148.48&#xA;  L 123.09 138.13&#xA;  A 2.47 2.47 0.0 0 1 125.39 135.05&#xA;  L 132.61 134.78&#xA;  Z"></path>
<path fill="#fdfce0" d="&#xA;  M 72.27 184.07&#xA;  C 75.30 186.50 71.87 190.30 71.88 193.69&#xA;  Q 72.05 229.07 71.82 264.44&#xA;  C 71.70 283.16 72.26 302.28 71.70 321.26&#xA;  Q 71.46 375.62 71.50 430.00&#xA;  Q 71.50 431.35 70.24 432.89&#xA;  C 60.78 433.76 60.81 423.59 60.79 417.33&#xA;  Q 60.73 402.52 60.96 387.80&#xA;  Q 61.66 376.23 60.71 364.74&#xA;  L 60.74 335.16&#xA;  L 60.49 315.45&#xA;  L 60.42 293.26&#xA;  C 60.51 288.76 61.59 283.44 61.03 278.81&#xA;  C 60.67 275.80 60.82 273.32 60.70 270.49&#xA;  Q 60.53 235.25 61.25 200.01&#xA;  C 61.42 191.36 60.63 186.32 67.80 182.40&#xA;  Q 68.27 182.14 68.79 182.27&#xA;  Q 70.70 182.74 72.27 184.07&#xA;  Z"></path>
<path fill="#446f7f" d="&#xA;  M 270.36 223.99&#xA;  C 268.61 226.39 269.55 232.50 273.75 232.47&#xA;  C 276.53 232.45 280.45 232.00 283.75 232.00&#xA;  C 318.21 232.07 352.72 232.23 387.17 231.69&#xA;  C 391.52 231.63 396.67 232.74 400.45 232.63&#xA;  C 405.42 232.49 406.70 227.38 405.72 223.36&#xA;  Q 414.10 223.10 422.45 223.34&#xA;  C 433.46 223.67 439.02 222.07 439.50 210.33&#xA;  Q 440.03 197.34 439.66 184.83&#xA;  A 0.88 0.88 0.0 0 1 440.54 183.92&#xA;  L 602.38 184.15&#xA;  A 1.63 1.62 -1.1 0 1 604.01 185.71&#xA;  L 604.58 199.01&#xA;  L 573.38 199.01&#xA;  C 569.99 199.00 564.01 197.75 562.78 201.51&#xA;  Q 561.27 206.13 561.13 211.00&#xA;  C 560.28 239.37 560.39 267.87 560.77 296.27&#xA;  Q 559.34 296.55 558.26 295.60&#xA;  C 558.63 278.74 536.54 270.70 523.13 271.74&#xA;  C 515.60 272.32 507.74 275.55 500.78 279.01&#xA;  Q 438.94 309.74 376.60 339.50&#xA;  C 368.70 343.27 365.22 340.26 364.69 331.93&#xA;  Q 364.15 323.47 364.08 315.00&#xA;  C 364.01 305.99 352.73 303.50 347.74 310.71&#xA;  C 344.84 314.90 344.98 318.29 344.65 324.57&#xA;  Q 344.04 336.06 344.47 347.19&#xA;  Q 349.27 363.00 365.53 368.45&#xA;  C 369.08 369.64 374.37 371.84 378.06 370.83&#xA;  L 392.69 374.79&#xA;  Q 380.62 377.55 368.93 380.05&#xA;  C 367.21 380.42 366.79 381.34 367.12 382.97&#xA;  C 363.06 384.87 350.58 390.77 357.08 397.01&#xA;  Q 357.01 397.61 355.92 397.82&#xA;  Q 352.34 393.37 351.19 392.07&#xA;  C 340.81 380.28 324.91 381.86 316.90 395.30&#xA;  C 313.86 400.40 309.16 402.66 311.03 409.21&#xA;  Q 311.56 411.08 313.77 410.58&#xA;  C 319.74 409.21 325.86 406.97 331.53 406.45&#xA;  C 341.85 405.51 349.84 407.53 359.52 409.27&#xA;  A 0.57 0.57 0.0 0 0 360.19 408.63&#xA;  L 359.33 402.32&#xA;  Q 365.43 410.60 373.32 413.95&#xA;  C 389.42 420.80 407.78 422.42 425.34 425.29&#xA;  L 428.17 425.93&#xA;  A 0.68 0.68 0.0 0 1 428.69 426.47&#xA;  L 429.02 428.25&#xA;  Q 429.12 428.77 429.61 428.97&#xA;  C 444.34 435.09 462.29 434.30 477.06 429.16&#xA;  C 487.24 425.62 499.58 418.29 508.94 411.92&#xA;  C 524.48 401.35 534.91 386.74 543.83 370.18&#xA;  A 0.67 0.67 0.0 0 0 543.24 369.19&#xA;  Q 539.47 369.17 535.83 370.10&#xA;  C 532.49 370.96 530.80 373.85 529.02 376.54&#xA;  A 0.76 0.76 0.0 0 1 527.64 376.26&#xA;  L 527.35 374.65&#xA;  C 541.47 358.26 546.38 334.32 545.42 313.26&#xA;  L 545.51 312.31&#xA;  Q 545.55 311.85 546.00 311.86&#xA;  L 560.73 312.18&#xA;  Q 560.90 366.17 560.74 420.00&#xA;  C 560.72 425.67 561.34 429.67 566.13 432.48&#xA;  A 0.76 0.75 41.0 0 1 566.22 433.72&#xA;  C 560.40 438.36 554.88 442.10 547.91 445.90&#xA;  Q 520.08 461.04 493.18 477.75&#xA;  C 487.22 481.45 475.17 488.58 471.91 496.44&#xA;  C 453.34 460.74 420.38 436.02 382.25 424.50&#xA;  C 361.66 418.28 337.67 417.76 314.96 420.47&#xA;  C 291.32 423.29 270.85 431.64 250.83 444.24&#xA;  C 225.53 460.16 209.60 483.86 197.98 511.01&#xA;  Q 187.86 499.85 174.75 492.04&#xA;  Q 166.62 486.82 161.06 483.70&#xA;  C 130.78 466.74 100.63 449.64 70.24 432.89&#xA;  Q 71.50 431.35 71.50 430.00&#xA;  Q 71.46 375.62 71.70 321.26&#xA;  L 72.43 321.08&#xA;  Q 73.01 320.93 73.05 320.34&#xA;  L 73.57 312.97&#xA;  A 0.99 0.98 -3.9 0 1 74.36 312.07&#xA;  Q 79.12 311.13 80.95 308.67&#xA;  Q 84.69 313.41 88.74 312.27&#xA;  C 91.72 311.42 93.30 309.08 93.27 305.84&#xA;  Q 93.04 278.97 93.76 252.11&#xA;  C 93.90 246.79 92.39 243.31 86.76 242.97&#xA;  Q 86.32 239.32 87.30 236.64&#xA;  C 91.03 236.02 93.98 234.63 93.84 230.98&#xA;  Q 93.19 213.51 92.98 195.90&#xA;  A 0.62 0.62 0.0 0 1 93.60 195.28&#xA;  C 131.00 195.11 169.99 195.30 211.94 194.89&#xA;  Q 214.79 194.86 217.04 194.02&#xA;  A 1.06 1.05 87.3 0 0 217.69 193.30&#xA;  C 218.76 189.20 218.46 183.65 212.76 183.74&#xA;  Q 206.48 183.84 191.24 183.69&#xA;  C 196.91 183.49 201.65 183.43 207.86 182.71&#xA;  Q 213.15 182.10 217.98 184.49&#xA;  Q 218.37 184.68 218.80 184.64&#xA;  L 226.45 184.05&#xA;  Q 226.94 184.01 226.96 184.51&#xA;  Q 227.37 196.83 227.28 209.12&#xA;  C 227.22 217.01 227.93 223.43 237.24 223.31&#xA;  Q 256.59 223.07 270.36 223.99&#xA;  Z&#xA;  M 128.22 361.72&#xA;  C 126.07 366.37 131.92 376.59 134.51 380.00&#xA;  C 144.49 393.14 158.65 406.19 173.89 413.36&#xA;  C 192.15 421.95 213.85 427.18 233.93 424.15&#xA;  Q 251.01 421.57 268.19 414.59&#xA;  Q 287.69 408.46 306.32 400.47&#xA;  Q 307.39 400.01 309.35 399.48&#xA;  C 312.59 398.60 317.75 392.44 315.69 389.01&#xA;  Q 311.74 382.44 303.64 382.35&#xA;  Q 296.04 377.91 288.70 374.14&#xA;  C 286.91 373.22 285.38 373.51 283.44 373.46&#xA;  Q 285.49 371.89 287.72 371.51&#xA;  C 300.20 371.68 314.73 367.70 319.36 354.69&#xA;  C 325.26 345.28 323.76 330.38 322.99 319.04&#xA;  C 322.68 314.36 321.58 310.84 317.91 308.27&#xA;  C 313.66 305.28 307.66 305.55 305.21 310.63&#xA;  Q 304.28 312.56 304.18 316.55&#xA;  Q 303.94 325.39 304.20 334.28&#xA;  C 304.60 347.86 289.18 340.13 281.75 336.49&#xA;  Q 223.09 307.73 164.58 278.66&#xA;  Q 158.24 275.52 152.94 273.60&#xA;  C 139.66 268.81 124.00 272.18 115.15 283.65&#xA;  C 108.40 292.40 114.22 298.83 121.86 303.47&#xA;  Q 122.36 303.78 122.29 304.36&#xA;  C 120.06 323.83 121.56 342.66 128.22 361.72&#xA;  Z"></path>
<path fill="#fdfce0" d="&#xA;  M 191.24 183.69&#xA;  Q 206.48 183.84 212.76 183.74&#xA;  C 218.46 183.65 218.76 189.20 217.69 193.30&#xA;  A 1.06 1.05 87.3 0 1 217.04 194.02&#xA;  Q 214.79 194.86 211.94 194.89&#xA;  C 169.99 195.30 131.00 195.11 93.60 195.28&#xA;  A 0.62 0.62 0.0 0 0 92.98 195.90&#xA;  Q 93.19 213.51 93.84 230.98&#xA;  C 93.98 234.63 91.03 236.02 87.30 236.64&#xA;  C 81.88 235.99 80.98 231.55 81.01 226.59&#xA;  Q 81.12 206.84 80.73 186.99&#xA;  Q 80.72 186.29 81.80 184.29&#xA;  C 84.46 184.76 86.99 183.71 89.41 183.73&#xA;  C 102.72 183.85 117.05 183.60 129.29 183.67&#xA;  Q 160.27 183.85 191.24 183.69&#xA;  Z"></path>
<path fill="#2d5a6f" d="&#xA;  M 72.27 184.07&#xA;  Q 76.25 185.63 81.80 184.29&#xA;  Q 80.72 186.29 80.73 186.99&#xA;  Q 81.12 206.84 81.01 226.59&#xA;  C 80.98 231.55 81.88 235.99 87.30 236.64&#xA;  Q 86.32 239.32 86.76 242.97&#xA;  C 82.57 242.98 80.74 244.83 80.73 249.10&#xA;  Q 80.64 278.91 80.95 308.67&#xA;  Q 79.12 311.13 74.36 312.07&#xA;  A 0.99 0.98 -3.9 0 0 73.57 312.97&#xA;  L 73.05 320.34&#xA;  Q 73.01 320.93 72.43 321.08&#xA;  L 71.70 321.26&#xA;  C 72.26 302.28 71.70 283.16 71.82 264.44&#xA;  Q 72.05 229.07 71.88 193.69&#xA;  C 71.87 190.30 75.30 186.50 72.27 184.07&#xA;  Z"></path>
<path fill="#0c3b50" d="&#xA;  M 573.38 199.01&#xA;  Q 574.93 218.29 574.59 237.76&#xA;  C 574.10 265.74 574.25 293.70 574.38 321.69&#xA;  C 574.50 346.60 574.10 371.48 574.49 396.40&#xA;  C 574.57 401.32 573.95 407.33 574.14 412.83&#xA;  Q 574.15 412.93 574.25 412.97&#xA;  Q 574.38 413.01 574.46 413.11&#xA;  Q 574.55 413.20 574.56 413.40&#xA;  Q 574.87 418.04 575.79 422.60&#xA;  C 576.42 425.70 575.68 428.95 578.65 432.05&#xA;  Q 579.01 432.42 579.10 432.92&#xA;  Q 579.98 437.85 577.26 442.06&#xA;  Q 543.43 461.03 514.69 478.69&#xA;  Q 507.35 483.19 499.23 488.90&#xA;  C 491.83 492.58 483.04 498.59 480.03 505.85&#xA;  Q 479.09 508.12 477.98 510.57&#xA;  L 471.91 496.44&#xA;  C 475.17 488.58 487.22 481.45 493.18 477.75&#xA;  Q 520.08 461.04 547.91 445.90&#xA;  C 554.88 442.10 560.40 438.36 566.22 433.72&#xA;  A 0.76 0.75 41.0 0 0 566.13 432.48&#xA;  C 561.34 429.67 560.72 425.67 560.74 420.00&#xA;  Q 560.90 366.17 560.73 312.18&#xA;  L 560.77 296.27&#xA;  C 560.39 267.87 560.28 239.37 561.13 211.00&#xA;  Q 561.27 206.13 562.78 201.51&#xA;  C 564.01 197.75 569.99 199.00 573.38 199.01&#xA;  Z"></path>
<path fill="#002a44" d="&#xA;  M 573.38 199.01&#xA;  L 604.58 199.01&#xA;  C 605.43 275.84 606.05 352.86 604.42 429.69&#xA;  Q 604.38 431.41 602.79 431.69&#xA;  C 594.21 433.16 584.82 437.50 577.26 442.06&#xA;  Q 579.98 437.85 579.10 432.92&#xA;  Q 579.01 432.42 578.65 432.05&#xA;  C 575.68 428.95 576.42 425.70 575.79 422.60&#xA;  Q 574.87 418.04 574.56 413.40&#xA;  Q 574.55 413.20 574.46 413.11&#xA;  Q 574.38 413.01 574.25 412.97&#xA;  Q 574.15 412.93 574.14 412.83&#xA;  C 573.95 407.33 574.57 401.32 574.49 396.40&#xA;  C 574.10 371.48 574.50 346.60 574.38 321.69&#xA;  C 574.25 293.70 574.10 265.74 574.59 237.76&#xA;  Q 574.93 218.29 573.38 199.01&#xA;  Z"></path>
<path fill="#fdfce0" d="&#xA;  M 405.72 223.36&#xA;  C 406.70 227.38 405.42 232.49 400.45 232.63&#xA;  C 396.67 232.74 391.52 231.63 387.17 231.69&#xA;  C 352.72 232.23 318.21 232.07 283.75 232.00&#xA;  C 280.45 232.00 276.53 232.45 273.75 232.47&#xA;  C 269.55 232.50 268.61 226.39 270.36 223.99&#xA;  Q 272.87 222.39 275.00 222.41&#xA;  Q 338.47 223.25 401.94 222.28&#xA;  C 403.32 222.26 404.57 222.78 405.72 223.36&#xA;  Z"></path>
<path fill="#fdfce0" d="&#xA;  M 86.76 242.97&#xA;  C 92.39 243.31 93.90 246.79 93.76 252.11&#xA;  Q 93.04 278.97 93.27 305.84&#xA;  C 93.30 309.08 91.72 311.42 88.74 312.27&#xA;  Q 84.69 313.41 80.95 308.67&#xA;  Q 80.64 278.91 80.73 249.10&#xA;  C 80.74 244.83 82.57 242.98 86.76 242.97&#xA;  Z"></path>
<path fill="#446f7f" d="&#xA;  M 60.70 270.49&#xA;  C 60.82 273.32 60.67 275.80 61.03 278.81&#xA;  C 61.59 283.44 60.51 288.76 60.42 293.26&#xA;  Q 59.42 281.82 60.70 270.49&#xA;  Z"></path>
<path fill="#000d33" d="&#xA;  M 319.36 354.69&#xA;  C 309.74 363.89 299.20 366.96 287.72 371.51&#xA;  Q 285.49 371.89 283.44 373.46&#xA;  L 275.21 374.33&#xA;  L 266.94 372.75&#xA;  Q 266.46 372.66 266.04 372.91&#xA;  C 249.25 382.76 221.70 384.55 208.64 367.58&#xA;  C 202.53 359.65 200.86 347.58 201.09 337.51&#xA;  Q 201.10 337.02 200.66 336.81&#xA;  L 167.81 321.60&#xA;  L 148.75 312.37&#xA;  L 145.34 309.78&#xA;  A 0.31 0.31 0.0 0 0 144.86 309.92&#xA;  C 138.41 328.16 144.18 349.31 156.06 364.09&#xA;  Q 161.67 371.89 169.19 378.60&#xA;  C 194.94 397.44 227.97 405.56 259.49 398.72&#xA;  C 265.03 397.52 271.03 396.75 276.31 394.73&#xA;  C 284.00 391.79 291.37 389.28 298.29 384.86&#xA;  Q 300.39 383.01 303.64 382.35&#xA;  Q 311.74 382.44 315.69 389.01&#xA;  C 317.75 392.44 312.59 398.60 309.35 399.48&#xA;  Q 307.39 400.01 306.32 400.47&#xA;  Q 287.69 408.46 268.19 414.59&#xA;  Q 266.75 413.34 265.47 413.71&#xA;  Q 258.05 415.90 247.00 416.95&#xA;  Q 218.89 419.62 191.64 412.50&#xA;  C 166.56 405.96 139.77 384.71 128.22 361.72&#xA;  C 121.56 342.66 120.06 323.83 122.29 304.36&#xA;  Q 122.36 303.78 121.86 303.47&#xA;  C 114.22 298.83 108.40 292.40 115.15 283.65&#xA;  C 124.00 272.18 139.66 268.81 152.94 273.60&#xA;  Q 158.24 275.52 164.58 278.66&#xA;  Q 223.09 307.73 281.75 336.49&#xA;  C 289.18 340.13 304.60 347.86 304.20 334.28&#xA;  Q 303.94 325.39 304.18 316.55&#xA;  Q 304.28 312.56 305.21 310.63&#xA;  C 307.66 305.55 313.66 305.28 317.91 308.27&#xA;  C 321.58 310.84 322.68 314.36 322.99 319.04&#xA;  C 323.76 330.38 325.26 345.28 319.36 354.69&#xA;  Z&#xA;  M 224.25 349.39&#xA;  C 224.81 355.23 229.64 366.54 236.72 356.83&#xA;  Q 236.99 356.45 236.61 356.19&#xA;  L 225.57 348.61&#xA;  A 0.85 0.84 14.3 0 0 224.25 349.39&#xA;  Z"></path>
<path fill="#000d33" d="&#xA;  M 558.26 295.60&#xA;  C 556.11 301.64 550.17 302.46 544.60 304.06&#xA;  Q 544.06 304.22 544.14 304.78&#xA;  L 545.42 313.26&#xA;  C 546.38 334.32 541.47 358.26 527.35 374.65&#xA;  Q 526.28 375.57 526.09 376.66&#xA;  Q 522.57 378.73 520.31 382.00&#xA;  C 518.25 384.98 514.75 388.14 512.04 390.31&#xA;  C 496.66 402.61 478.44 412.05 458.99 415.65&#xA;  C 426.90 421.59 392.51 414.14 363.07 399.42&#xA;  Q 360.99 398.37 357.08 397.01&#xA;  C 350.58 390.77 363.06 384.87 367.12 382.97&#xA;  L 379.39 389.15&#xA;  C 399.52 397.86 421.66 403.23 443.52 399.63&#xA;  Q 472.03 394.94 495.54 378.27&#xA;  Q 503.56 372.57 508.05 365.71&#xA;  L 509.55 363.76&#xA;  Q 521.22 349.62 523.90 331.79&#xA;  Q 525.74 320.69 522.78 310.28&#xA;  Q 522.63 309.76 522.18 310.04&#xA;  Q 515.91 313.90 505.23 318.96&#xA;  Q 481.09 330.41 470.70 335.02&#xA;  Q 470.27 335.21 470.29 335.67&#xA;  Q 470.69 349.33 463.86 360.63&#xA;  C 461.53 364.01 459.58 367.33 456.47 369.89&#xA;  C 439.16 384.11 417.51 382.83 398.27 372.95&#xA;  Q 397.09 371.84 396.62 372.60&#xA;  Q 396.23 373.25 395.75 373.77&#xA;  L 392.69 374.79&#xA;  L 378.06 370.83&#xA;  Q 375.45 369.36 367.97 366.54&#xA;  C 358.27 362.89 352.14 355.05 344.47 347.19&#xA;  Q 344.04 336.06 344.65 324.57&#xA;  C 344.98 318.29 344.84 314.90 347.74 310.71&#xA;  C 352.73 303.50 364.01 305.99 364.08 315.00&#xA;  Q 364.15 323.47 364.69 331.93&#xA;  C 365.22 340.26 368.70 343.27 376.60 339.50&#xA;  Q 438.94 309.74 500.78 279.01&#xA;  C 507.74 275.55 515.60 272.32 523.13 271.74&#xA;  C 536.54 270.70 558.63 278.74 558.26 295.60&#xA;  Z&#xA;  M 428.35 356.60&#xA;  C 430.32 358.85 433.86 363.39 437.27 360.05&#xA;  Q 441.39 356.02 443.01 350.41&#xA;  A 1.13 1.13 0.0 0 0 441.92 348.97&#xA;  C 438.01 348.99 432.44 354.05 428.53 355.78&#xA;  A 0.52 0.52 0.0 0 0 428.35 356.60&#xA;  Z"></path>
<path fill="#2d5a6f" d="&#xA;  M 558.26 295.60&#xA;  Q 559.34 296.55 560.77 296.27&#xA;  L 560.73 312.18&#xA;  L 546.00 311.86&#xA;  Q 545.55 311.85 545.51 312.31&#xA;  L 545.42 313.26&#xA;  L 544.14 304.78&#xA;  Q 544.06 304.22 544.60 304.06&#xA;  C 550.17 302.46 556.11 301.64 558.26 295.60&#xA;  Z"></path>
<path fill="#f8fbf7" d="&#xA;  M 148.75 312.37&#xA;  Q 146.27 323.27 148.30 333.83&#xA;  Q 145.54 337.89 146.20 342.41&#xA;  Q 146.28 342.94 146.71 343.28&#xA;  L 148.26 344.47&#xA;  Q 148.65 344.77 148.87 345.22&#xA;  Q 149.76 347.08 151.76 347.23&#xA;  Q 152.23 347.26 152.61 347.55&#xA;  C 154.10 348.66 155.68 348.76 157.20 349.72&#xA;  C 161.30 352.31 164.65 351.13 168.64 352.74&#xA;  C 172.37 354.24 176.25 355.14 179.88 356.71&#xA;  Q 190.30 361.22 201.78 361.96&#xA;  Q 202.33 361.99 202.41 361.45&#xA;  Q 202.96 358.17 201.27 357.14&#xA;  L 199.74 338.80&#xA;  Q 199.69 338.23 199.18 337.98&#xA;  L 167.02 322.71&#xA;  A 0.46 0.46 0.0 0 1 167.07 321.85&#xA;  L 167.81 321.60&#xA;  L 200.66 336.81&#xA;  Q 201.10 337.02 201.09 337.51&#xA;  C 200.86 347.58 202.53 359.65 208.64 367.58&#xA;  C 221.70 384.55 249.25 382.76 266.04 372.91&#xA;  Q 266.46 372.66 266.94 372.75&#xA;  L 275.21 374.33&#xA;  L 277.90 374.50&#xA;  Q 278.34 374.53 278.56 374.91&#xA;  L 278.75 375.22&#xA;  A 0.39 0.39 0.0 0 1 278.46 375.80&#xA;  Q 276.39 376.04 276.80 377.71&#xA;  C 278.28 383.64 282.44 384.92 287.93 385.32&#xA;  C 291.32 385.58 294.25 383.81 297.48 383.63&#xA;  Q 298.42 383.58 298.29 384.86&#xA;  C 291.37 389.28 284.00 391.79 276.31 394.73&#xA;  C 271.03 396.75 265.03 397.52 259.49 398.72&#xA;  C 227.97 405.56 194.94 397.44 169.19 378.60&#xA;  Q 169.20 377.78 169.43 377.65&#xA;  A 1.73 1.70 42.0 0 1 171.02 377.58&#xA;  C 182.31 382.89 192.68 385.89 204.56 379.75&#xA;  C 208.48 377.72 209.74 374.51 207.18 370.72&#xA;  Q 206.80 370.16 206.20 370.48&#xA;  Q 204.61 371.36 204.23 373.29&#xA;  A 2.08 2.07 -78.6 0 1 201.77 374.93&#xA;  Q 185.63 371.59 170.57 366.74&#xA;  C 167.10 365.62 161.97 364.58 157.76 362.22&#xA;  Q 157.36 361.99 157.11 362.38&#xA;  L 156.06 364.09&#xA;  C 144.18 349.31 138.41 328.16 144.86 309.92&#xA;  A 0.31 0.31 0.0 0 1 145.34 309.78&#xA;  L 148.75 312.37&#xA;  Z"></path>
<path fill="#f3e6cb" d="&#xA;  M 523.90 331.79&#xA;  Q 523.25 329.84 521.88 330.92&#xA;  C 517.68 334.22 509.63 336.09 504.98 338.29&#xA;  C 490.70 345.05 481.71 351.75 470.18 359.21&#xA;  C 468.07 360.58 467.21 363.41 463.86 360.63&#xA;  Q 470.69 349.33 470.29 335.67&#xA;  Q 470.27 335.21 470.70 335.02&#xA;  Q 481.09 330.41 505.23 318.96&#xA;  Q 515.91 313.90 522.18 310.04&#xA;  Q 522.63 309.76 522.78 310.28&#xA;  Q 525.74 320.69 523.90 331.79&#xA;  Z"></path>
<path fill="#b5dad9" d="&#xA;  M 148.75 312.37&#xA;  L 167.81 321.60&#xA;  L 167.07 321.85&#xA;  A 0.46 0.46 0.0 0 0 167.02 322.71&#xA;  L 199.18 337.98&#xA;  Q 199.69 338.23 199.74 338.80&#xA;  L 201.27 357.14&#xA;  Q 184.24 346.85 173.74 343.01&#xA;  Q 161.49 338.53 148.30 333.83&#xA;  Q 146.27 323.27 148.75 312.37&#xA;  Z"></path>
<path fill="#446f7f" d="&#xA;  M 60.49 315.45&#xA;  L 60.74 335.16&#xA;  Q 59.54 331.75 60.02 328.14&#xA;  C 60.64 323.41 60.28 319.82 60.49 315.45&#xA;  Z"></path>
<path fill="#f8fbf7" d="&#xA;  M 523.90 331.79&#xA;  Q 521.22 349.62 509.55 363.76&#xA;  C 503.32 359.91 478.16 369.39 471.62 371.44&#xA;  C 467.47 372.75 464.42 372.44 461.05 370.04&#xA;  A 1.86 1.85 44.1 0 0 458.88 370.07&#xA;  L 453.53 374.07&#xA;  A 1.33 1.33 0.0 0 0 453.41 376.10&#xA;  C 462.73 384.93 473.54 381.47 484.74 380.14&#xA;  C 490.05 379.51 493.45 377.80 497.30 374.54&#xA;  C 500.15 372.12 503.78 369.75 506.30 366.49&#xA;  Q 506.63 366.07 507.06 365.90&#xA;  Q 507.74 365.63 508.05 365.71&#xA;  Q 503.56 372.57 495.54 378.27&#xA;  Q 472.03 394.94 443.52 399.63&#xA;  C 421.66 403.23 399.52 397.86 379.39 389.15&#xA;  Q 388.85 386.27 393.71 382.00&#xA;  Q 397.73 378.47 396.28 373.92&#xA;  Q 396.92 372.79 398.27 372.95&#xA;  C 417.51 382.83 439.16 384.11 456.47 369.89&#xA;  C 459.58 367.33 461.53 364.01 463.86 360.63&#xA;  C 467.21 363.41 468.07 360.58 470.18 359.21&#xA;  C 481.71 351.75 490.70 345.05 504.98 338.29&#xA;  C 509.63 336.09 517.68 334.22 521.88 330.92&#xA;  Q 523.25 329.84 523.90 331.79&#xA;  Z"></path>
<path fill="#f3e6cb" d="&#xA;  M 148.30 333.83&#xA;  Q 161.49 338.53 173.74 343.01&#xA;  Q 184.24 346.85 201.27 357.14&#xA;  Q 202.96 358.17 202.41 361.45&#xA;  Q 202.33 361.99 201.78 361.96&#xA;  Q 190.30 361.22 179.88 356.71&#xA;  C 176.25 355.14 172.37 354.24 168.64 352.74&#xA;  C 164.65 351.13 161.30 352.31 157.20 349.72&#xA;  C 155.68 348.76 154.10 348.66 152.61 347.55&#xA;  Q 152.23 347.26 151.76 347.23&#xA;  Q 149.76 347.08 148.87 345.22&#xA;  Q 148.65 344.77 148.26 344.47&#xA;  L 146.71 343.28&#xA;  Q 146.28 342.94 146.20 342.41&#xA;  Q 145.54 337.89 148.30 333.83&#xA;  Z"></path>
<path fill="#0c3b50" d="&#xA;  M 344.47 347.19&#xA;  C 352.14 355.05 358.27 362.89 367.97 366.54&#xA;  Q 375.45 369.36 378.06 370.83&#xA;  C 374.37 371.84 369.08 369.64 365.53 368.45&#xA;  Q 349.27 363.00 344.47 347.19&#xA;  Z"></path>
<path fill="#fcfdff" d="&#xA;  M 236.72 356.83&#xA;  C 229.64 366.54 224.81 355.23 224.25 349.39&#xA;  A 0.85 0.84 14.3 0 1 225.57 348.61&#xA;  L 236.61 356.19&#xA;  Q 236.99 356.45 236.72 356.83&#xA;  Z"></path>
<path fill="#f8fbf7" d="&#xA;  M 437.27 360.05&#xA;  C 433.86 363.39 430.32 358.85 428.35 356.60&#xA;  A 0.52 0.52 0.0 0 1 428.53 355.78&#xA;  C 432.44 354.05 438.01 348.99 441.92 348.97&#xA;  A 1.13 1.13 0.0 0 1 443.01 350.41&#xA;  Q 441.39 356.02 437.27 360.05&#xA;  Z"></path>
<path fill="#2d5a6f" d="&#xA;  M 319.36 354.69&#xA;  C 314.73 367.70 300.20 371.68 287.72 371.51&#xA;  C 299.20 366.96 309.74 363.89 319.36 354.69&#xA;  Z"></path>
<path fill="#0c3b50" d="&#xA;  M 128.22 361.72&#xA;  C 139.77 384.71 166.56 405.96 191.64 412.50&#xA;  Q 218.89 419.62 247.00 416.95&#xA;  Q 258.05 415.90 265.47 413.71&#xA;  Q 266.75 413.34 268.19 414.59&#xA;  Q 251.01 421.57 233.93 424.15&#xA;  C 213.85 427.18 192.15 421.95 173.89 413.36&#xA;  C 158.65 406.19 144.49 393.14 134.51 380.00&#xA;  C 131.92 376.59 126.07 366.37 128.22 361.72&#xA;  Z"></path>
<path fill="#fbe6ac" d="&#xA;  M 169.19 378.60&#xA;  Q 161.67 371.89 156.06 364.09&#xA;  L 157.11 362.38&#xA;  Q 157.36 361.99 157.76 362.22&#xA;  C 161.97 364.58 167.10 365.62 170.57 366.74&#xA;  Q 185.63 371.59 201.77 374.93&#xA;  A 2.08 2.07 -78.6 0 0 204.23 373.29&#xA;  Q 204.61 371.36 206.20 370.48&#xA;  Q 206.80 370.16 207.18 370.72&#xA;  C 209.74 374.51 208.48 377.72 204.56 379.75&#xA;  C 192.68 385.89 182.31 382.89 171.02 377.58&#xA;  A 1.73 1.70 42.0 0 0 169.43 377.65&#xA;  Q 169.20 377.78 169.19 378.60&#xA;  Z"></path>
<path fill="#fbe6ac" d="&#xA;  M 509.55 363.76&#xA;  L 508.05 365.71&#xA;  Q 507.74 365.63 507.06 365.90&#xA;  Q 506.63 366.07 506.30 366.49&#xA;  C 503.78 369.75 500.15 372.12 497.30 374.54&#xA;  C 493.45 377.80 490.05 379.51 484.74 380.14&#xA;  C 473.54 381.47 462.73 384.93 453.41 376.10&#xA;  A 1.33 1.33 0.0 0 1 453.53 374.07&#xA;  L 458.88 370.07&#xA;  A 1.86 1.85 44.1 0 1 461.05 370.04&#xA;  C 464.42 372.44 467.47 372.75 471.62 371.44&#xA;  C 478.16 369.39 503.32 359.91 509.55 363.76&#xA;  Z"></path>
<path fill="#446f7f" d="&#xA;  M 60.71 364.74&#xA;  Q 61.66 376.23 60.96 387.80&#xA;  Q 58.73 376.46 60.71 364.74&#xA;  Z"></path>
<path fill="#2d5a6f" d="&#xA;  M 425.34 425.29&#xA;  Q 445.20 427.63 464.99 423.20&#xA;  Q 472.25 421.57 482.26 416.00&#xA;  C 501.48 405.30 514.83 394.36 526.09 376.66&#xA;  Q 526.28 375.57 527.35 374.65&#xA;  L 527.64 376.26&#xA;  A 0.76 0.76 0.0 0 0 529.02 376.54&#xA;  C 530.80 373.85 532.49 370.96 535.83 370.10&#xA;  Q 539.47 369.17 543.24 369.19&#xA;  A 0.67 0.67 0.0 0 1 543.83 370.18&#xA;  C 534.91 386.74 524.48 401.35 508.94 411.92&#xA;  C 499.58 418.29 487.24 425.62 477.06 429.16&#xA;  C 462.29 434.30 444.34 435.09 429.61 428.97&#xA;  Q 429.12 428.77 429.02 428.25&#xA;  L 428.69 426.47&#xA;  A 0.68 0.68 0.0 0 0 428.17 425.93&#xA;  L 425.34 425.29&#xA;  Z"></path>
<path fill="#446f7f" d="&#xA;  M 398.27 372.95&#xA;  Q 396.92 372.79 396.28 373.92&#xA;  Q 396.26 373.65 395.75 373.77&#xA;  Q 396.23 373.25 396.62 372.60&#xA;  Q 397.09 371.84 398.27 372.95&#xA;  Z"></path>
<path fill="#f3e6cb" d="&#xA;  M 283.44 373.46&#xA;  C 285.38 373.51 286.91 373.22 288.70 374.14&#xA;  Q 296.04 377.91 303.64 382.35&#xA;  Q 300.39 383.01 298.29 384.86&#xA;  Q 298.42 383.58 297.48 383.63&#xA;  C 294.25 383.81 291.32 385.58 287.93 385.32&#xA;  C 282.44 384.92 278.28 383.64 276.80 377.71&#xA;  Q 276.39 376.04 278.46 375.80&#xA;  A 0.39 0.39 0.0 0 0 278.75 375.22&#xA;  L 278.56 374.91&#xA;  Q 278.34 374.53 277.90 374.50&#xA;  L 275.21 374.33&#xA;  L 283.44 373.46&#xA;  Z"></path>
<path fill="#f3e6cb" d="&#xA;  M 395.75 373.77&#xA;  Q 396.26 373.65 396.28 373.92&#xA;  Q 397.73 378.47 393.71 382.00&#xA;  Q 388.85 386.27 379.39 389.15&#xA;  L 367.12 382.97&#xA;  C 366.79 381.34 367.21 380.42 368.93 380.05&#xA;  Q 380.62 377.55 392.69 374.79&#xA;  L 395.75 373.77&#xA;  Z"></path>
<path fill="#0c3b50" d="&#xA;  M 526.09 376.66&#xA;  C 514.83 394.36 501.48 405.30 482.26 416.00&#xA;  Q 472.25 421.57 464.99 423.20&#xA;  Q 445.20 427.63 425.34 425.29&#xA;  C 407.78 422.42 389.42 420.80 373.32 413.95&#xA;  Q 365.43 410.60 359.33 402.32&#xA;  L 355.92 397.82&#xA;  Q 357.01 397.61 357.08 397.01&#xA;  Q 360.99 398.37 363.07 399.42&#xA;  C 392.51 414.14 426.90 421.59 458.99 415.65&#xA;  C 478.44 412.05 496.66 402.61 512.04 390.31&#xA;  C 514.75 388.14 518.25 384.98 520.31 382.00&#xA;  Q 522.57 378.73 526.09 376.66&#xA;  Z"></path>
<path fill="#000d33" d="&#xA;  M 355.92 397.82&#xA;  L 359.33 402.32&#xA;  L 360.19 408.63&#xA;  A 0.57 0.57 0.0 0 1 359.52 409.27&#xA;  C 349.84 407.53 341.85 405.51 331.53 406.45&#xA;  C 325.86 406.97 319.74 409.21 313.77 410.58&#xA;  Q 311.56 411.08 311.03 409.21&#xA;  C 309.16 402.66 313.86 400.40 316.90 395.30&#xA;  C 324.91 381.86 340.81 380.28 351.19 392.07&#xA;  Q 352.34 393.37 355.92 397.82&#xA;  Z"></path>
<path fill="#000d33" d="&#xA;  M 471.91 496.44&#xA;  L 477.98 510.57&#xA;  Q 484.53 529.87 489.53 550.12&#xA;  Q 491.04 556.24 491.40 562.55&#xA;  Q 492.69 584.82 492.06 607.36&#xA;  Q 492.04 608.47 490.25 608.47&#xA;  C 476.67 608.53 463.09 608.65 449.52 608.26&#xA;  Q 443.25 608.08 436.95 608.86&#xA;  C 433.99 609.05 430.96 609.35 428.01 609.33&#xA;  Q 386.13 608.96 344.25 609.58&#xA;  C 306.48 610.13 268.62 609.49 230.83 609.47&#xA;  C 224.81 609.46 218.78 609.08 212.76 608.79&#xA;  C 210.24 608.66 207.49 609.20 204.73 609.05&#xA;  C 195.28 608.56 185.83 608.77 176.32 608.73&#xA;  A 1.74 1.72 86.4 0 1 174.61 607.21&#xA;  L 173.77 600.53&#xA;  L 173.53 559.41&#xA;  Q 178.08 555.33 179.41 551.70&#xA;  C 183.95 539.40 190.82 527.39 196.56 515.57&#xA;  Q 197.64 513.36 197.98 511.01&#xA;  C 209.60 483.86 225.53 460.16 250.83 444.24&#xA;  C 270.85 431.64 291.32 423.29 314.96 420.47&#xA;  C 337.67 417.76 361.66 418.28 382.25 424.50&#xA;  C 420.38 436.02 453.34 460.74 471.91 496.44&#xA;  Z&#xA;  M 269.97 480.68&#xA;  Q 263.19 484.84 257.53 490.34&#xA;  C 244.48 502.69 235.52 520.16 229.27 537.26&#xA;  Q 225.90 546.49 216.66 559.44&#xA;  Q 216.35 559.87 216.36 560.39&#xA;  L 216.61 573.00&#xA;  L 216.59 582.85&#xA;  Q 216.59 583.42 217.16 583.42&#xA;  C 291.70 583.85 366.21 583.97 440.73 583.16&#xA;  L 452.41 582.84&#xA;  Q 452.98 582.82 452.96 582.25&#xA;  L 452.52 571.71&#xA;  L 452.56 551.80&#xA;  A 1.62 1.58 28.4 0 0 452.28 550.90&#xA;  C 446.69 542.52 443.80 531.96 440.08 522.60&#xA;  Q 434.53 508.65 431.71 504.76&#xA;  Q 413.09 479.10 383.07 467.69&#xA;  C 375.52 464.82 370.09 464.12 360.23 462.56&#xA;  C 340.25 459.39 319.66 461.63 301.74 465.75&#xA;  Q 285.34 469.52 269.97 480.68&#xA;  Z"></path>
<path fill="#fcfdff" d="&#xA;  M 452.52 571.71&#xA;  Q 450.87 572.25 450.55 570.66&#xA;  A 0.74 0.73 84.2 0 0 449.83 570.07&#xA;  C 448.31 570.07 446.78 569.73 445.37 569.70&#xA;  C 431.24 569.46 416.68 568.73 403.00 568.74&#xA;  C 358.11 568.79 313.21 569.01 268.32 568.97&#xA;  Q 239.86 568.93 220.44 570.15&#xA;  Q 218.74 570.26 219.34 572.26&#xA;  Q 218.59 573.64 216.61 573.00&#xA;  L 216.36 560.39&#xA;  Q 216.35 559.87 216.66 559.44&#xA;  Q 225.90 546.49 229.27 537.26&#xA;  C 235.52 520.16 244.48 502.69 257.53 490.34&#xA;  Q 259.13 492.05 260.74 491.52&#xA;  Q 267.29 489.36 272.61 488.27&#xA;  C 282.87 486.18 292.98 483.73 303.14 481.28&#xA;  C 322.39 476.65 342.28 475.54 361.84 478.53&#xA;  C 376.17 480.72 388.01 484.79 401.22 487.41&#xA;  Q 405.74 488.30 406.90 484.68&#xA;  A 1.00 1.00 0.0 0 0 406.29 483.44&#xA;  C 396.40 479.84 386.41 475.73 376.21 473.14&#xA;  C 361.44 469.38 347.24 467.28 332.31 468.61&#xA;  Q 326.57 469.12 318.12 470.29&#xA;  C 307.32 471.79 296.53 475.28 285.81 478.01&#xA;  C 282.17 478.94 276.81 479.27 272.40 481.76&#xA;  Q 271.97 482.00 271.49 481.88&#xA;  Q 269.64 481.43 269.97 480.68&#xA;  Q 285.34 469.52 301.74 465.75&#xA;  C 319.66 461.63 340.25 459.39 360.23 462.56&#xA;  C 370.09 464.12 375.52 464.82 383.07 467.69&#xA;  Q 413.09 479.10 431.71 504.76&#xA;  Q 434.53 508.65 440.08 522.60&#xA;  C 443.80 531.96 446.69 542.52 452.28 550.90&#xA;  A 1.62 1.58 28.4 0 1 452.56 551.80&#xA;  L 452.52 571.71&#xA;  Z&#xA;  M 249.52 523.72&#xA;  Q 235.46 532.94 228.84 547.28&#xA;  Q 225.97 551.09 224.79 555.10&#xA;  A 1.33 1.32 -78.8 0 0 225.91 556.79&#xA;  C 235.60 557.87 245.15 558.88 255.01 559.04&#xA;  Q 282.28 559.50 299.44 559.16&#xA;  Q 305.94 559.04 310.81 560.77&#xA;  C 312.23 561.28 315.15 559.96 316.75 559.87&#xA;  Q 330.28 559.17 343.75 560.71&#xA;  C 351.22 561.57 362.79 560.42 373.53 561.42&#xA;  C 380.66 562.08 386.98 561.08 393.74 560.67&#xA;  Q 395.82 560.55 397.97 561.40&#xA;  C 403.56 563.62 407.73 562.57 413.10 561.92&#xA;  Q 413.44 561.88 413.49 562.22&#xA;  L 413.55 562.67&#xA;  A 0.21 0.20 -10.3 0 0 413.80 562.84&#xA;  Q 418.49 561.70 423.28 562.02&#xA;  A 1.55 1.55 0.0 0 0 424.92 560.31&#xA;  Q 424.39 555.35 421.49 551.32&#xA;  Q 421.17 550.87 420.63 550.79&#xA;  Q 418.17 550.41 416.85 548.06&#xA;  Q 416.61 547.63 416.11 547.68&#xA;  Q 415.02 547.79 413.96 547.48&#xA;  Q 412.93 547.18 413.99 547.06&#xA;  L 415.75 546.84&#xA;  L 445.54 547.44&#xA;  Q 446.27 547.45 445.97 546.79&#xA;  Q 439.78 533.16 427.48 523.42&#xA;  Q 433.17 519.24 434.05 513.26&#xA;  Q 434.25 511.88 432.87 511.80&#xA;  Q 432.40 511.77 432.12 511.40&#xA;  L 428.62 506.72&#xA;  Q 428.32 506.32 427.83 506.20&#xA;  Q 388.88 497.09 349.00 494.01&#xA;  C 338.14 493.17 323.42 494.04 310.93 496.33&#xA;  Q 282.61 501.54 254.28 506.74&#xA;  C 252.48 507.07 243.97 506.88 245.57 511.19&#xA;  Q 247.30 515.80 247.03 519.77&#xA;  A 1.41 1.40 -60.9 0 0 247.28 520.66&#xA;  L 249.52 523.72&#xA;  Z"></path>
<path fill="#fbf7cb" d="&#xA;  M 257.53 490.34&#xA;  Q 263.19 484.84 269.97 480.68&#xA;  Q 269.64 481.43 271.49 481.88&#xA;  Q 271.97 482.00 272.40 481.76&#xA;  C 276.81 479.27 282.17 478.94 285.81 478.01&#xA;  C 296.53 475.28 307.32 471.79 318.12 470.29&#xA;  Q 326.57 469.12 332.31 468.61&#xA;  C 347.24 467.28 361.44 469.38 376.21 473.14&#xA;  C 386.41 475.73 396.40 479.84 406.29 483.44&#xA;  A 1.00 1.00 0.0 0 1 406.90 484.68&#xA;  Q 405.74 488.30 401.22 487.41&#xA;  C 388.01 484.79 376.17 480.72 361.84 478.53&#xA;  C 342.28 475.54 322.39 476.65 303.14 481.28&#xA;  C 292.98 483.73 282.87 486.18 272.61 488.27&#xA;  Q 267.29 489.36 260.74 491.52&#xA;  Q 259.13 492.05 257.53 490.34&#xA;  Z"></path>
<path fill="#002a44" d="&#xA;  M 499.23 488.90&#xA;  L 499.03 610.79&#xA;  L 498.13 607.75&#xA;  Q 497.98 607.26 497.53 607.03&#xA;  Q 495.02 605.73 492.06 607.36&#xA;  Q 492.69 584.82 491.40 562.55&#xA;  Q 491.04 556.24 489.53 550.12&#xA;  Q 484.53 529.87 477.98 510.57&#xA;  Q 479.09 508.12 480.03 505.85&#xA;  C 483.04 498.59 491.83 492.58 499.23 488.90&#xA;  Z"></path>
<path fill="#002a44" d="&#xA;  M 174.75 492.04&#xA;  Q 187.86 499.85 197.98 511.01&#xA;  Q 197.64 513.36 196.56 515.57&#xA;  C 190.82 527.39 183.95 539.40 179.41 551.70&#xA;  Q 178.08 555.33 173.53 559.41&#xA;  C 173.17 554.45 172.67 549.69 172.83 544.53&#xA;  Q 173.26 531.22 171.55 518.20&#xA;  Q 169.69 506.31 171.69 494.07&#xA;  Q 171.76 493.59 172.20 493.36&#xA;  L 174.75 492.04&#xA;  Z"></path>
<path fill="#fbe6ac" d="&#xA;  M 427.48 523.42&#xA;  C 400.77 503.09 361.19 498.20 327.71 500.37&#xA;  C 313.84 501.27 300.36 504.55 286.52 508.31&#xA;  Q 266.49 513.75 249.52 523.72&#xA;  L 247.28 520.66&#xA;  A 1.41 1.40 -60.9 0 1 247.03 519.77&#xA;  Q 247.30 515.80 245.57 511.19&#xA;  C 243.97 506.88 252.48 507.07 254.28 506.74&#xA;  Q 282.61 501.54 310.93 496.33&#xA;  C 323.42 494.04 338.14 493.17 349.00 494.01&#xA;  Q 388.88 497.09 427.83 506.20&#xA;  Q 428.32 506.32 428.62 506.72&#xA;  L 432.12 511.40&#xA;  Q 432.40 511.77 432.87 511.80&#xA;  Q 434.25 511.88 434.05 513.26&#xA;  Q 433.17 519.24 427.48 523.42&#xA;  Z"></path>
<path fill="#000d33" d="&#xA;  M 427.48 523.42&#xA;  Q 439.78 533.16 445.97 546.79&#xA;  Q 446.27 547.45 445.54 547.44&#xA;  L 415.75 546.84&#xA;  L 228.84 547.28&#xA;  Q 235.46 532.94 249.52 523.72&#xA;  Q 266.49 513.75 286.52 508.31&#xA;  C 300.36 504.55 313.84 501.27 327.71 500.37&#xA;  C 361.19 498.20 400.77 503.09 427.48 523.42&#xA;  Z"></path>
<path fill="#b5dad9" d="&#xA;  M 171.55 518.20&#xA;  Q 173.26 531.22 172.83 544.53&#xA;  C 172.67 549.69 173.17 554.45 173.53 559.41&#xA;  L 173.77 600.53&#xA;  Q 174.45 601.39 171.45 600.69&#xA;  L 171.55 518.20&#xA;  Z"></path>
<path fill="#f8fbf7" d="&#xA;  M 415.75 546.84&#xA;  L 413.99 547.06&#xA;  Q 412.93 547.18 413.96 547.48&#xA;  Q 415.02 547.79 416.11 547.68&#xA;  Q 416.61 547.63 416.85 548.06&#xA;  Q 418.17 550.41 420.63 550.79&#xA;  Q 421.17 550.87 421.49 551.32&#xA;  Q 424.39 555.35 424.92 560.31&#xA;  A 1.55 1.55 0.0 0 1 423.28 562.02&#xA;  Q 418.49 561.70 413.80 562.84&#xA;  A 0.21 0.20 -10.3 0 1 413.55 562.67&#xA;  L 413.49 562.22&#xA;  Q 413.44 561.88 413.10 561.92&#xA;  C 407.73 562.57 403.56 563.62 397.97 561.40&#xA;  Q 395.82 560.55 393.74 560.67&#xA;  C 386.98 561.08 380.66 562.08 373.53 561.42&#xA;  C 362.79 560.42 351.22 561.57 343.75 560.71&#xA;  Q 330.28 559.17 316.75 559.87&#xA;  C 315.15 559.96 312.23 561.28 310.81 560.77&#xA;  Q 305.94 559.04 299.44 559.16&#xA;  Q 282.28 559.50 255.01 559.04&#xA;  C 245.15 558.88 235.60 557.87 225.91 556.79&#xA;  A 1.33 1.32 -78.8 0 1 224.79 555.10&#xA;  Q 225.97 551.09 228.84 547.28&#xA;  L 415.75 546.84&#xA;  Z"></path>
<path fill="#fbf7cb" d="&#xA;  M 452.52 571.71&#xA;  L 452.96 582.25&#xA;  Q 452.98 582.82 452.41 582.84&#xA;  L 440.73 583.16&#xA;  Q 438.20 583.23 437.02 581.11&#xA;  Q 436.77 580.67 436.27 580.63&#xA;  Q 429.66 580.18 423.06 579.99&#xA;  C 420.30 579.90 417.99 578.88 415.19 578.51&#xA;  Q 414.81 578.46 414.51 578.22&#xA;  Q 414.09 577.88 413.68 578.16&#xA;  Q 413.27 578.45 412.77 578.47&#xA;  Q 408.56 578.66 404.72 577.19&#xA;  C 400.87 575.72 396.93 576.26 392.99 576.68&#xA;  C 390.47 576.95 388.48 575.78 386.22 575.80&#xA;  Q 383.39 575.83 380.56 575.67&#xA;  C 376.46 575.44 372.33 576.23 368.01 575.68&#xA;  C 366.24 575.46 364.31 576.58 362.31 576.30&#xA;  C 352.27 574.92 343.89 575.93 334.55 576.23&#xA;  C 331.63 576.32 328.76 575.05 325.25 575.73&#xA;  C 310.57 578.57 294.20 573.78 281.45 578.00&#xA;  Q 278.81 578.87 275.88 579.07&#xA;  C 272.35 579.30 269.01 580.21 265.60 580.25&#xA;  Q 250.63 580.40 235.67 580.33&#xA;  C 232.18 580.31 226.51 581.14 221.68 580.22&#xA;  Q 221.17 580.12 220.91 579.67&#xA;  C 219.58 577.46 219.88 574.71 219.34 572.26&#xA;  Q 218.74 570.26 220.44 570.15&#xA;  Q 239.86 568.93 268.32 568.97&#xA;  C 313.21 569.01 358.11 568.79 403.00 568.74&#xA;  C 416.68 568.73 431.24 569.46 445.37 569.70&#xA;  C 446.78 569.73 448.31 570.07 449.83 570.07&#xA;  A 0.74 0.73 84.2 0 1 450.55 570.66&#xA;  Q 450.87 572.25 452.52 571.71&#xA;  Z"></path>
<path fill="#fdfce0" d="&#xA;  M 219.34 572.26&#xA;  C 219.88 574.71 219.58 577.46 220.91 579.67&#xA;  Q 221.17 580.12 221.68 580.22&#xA;  C 226.51 581.14 232.18 580.31 235.67 580.33&#xA;  Q 250.63 580.40 265.60 580.25&#xA;  C 269.01 580.21 272.35 579.30 275.88 579.07&#xA;  Q 278.81 578.87 281.45 578.00&#xA;  C 294.20 573.78 310.57 578.57 325.25 575.73&#xA;  C 328.76 575.05 331.63 576.32 334.55 576.23&#xA;  C 343.89 575.93 352.27 574.92 362.31 576.30&#xA;  C 364.31 576.58 366.24 575.46 368.01 575.68&#xA;  C 372.33 576.23 376.46 575.44 380.56 575.67&#xA;  Q 383.39 575.83 386.22 575.80&#xA;  C 388.48 575.78 390.47 576.95 392.99 576.68&#xA;  C 396.93 576.26 400.87 575.72 404.72 577.19&#xA;  Q 408.56 578.66 412.77 578.47&#xA;  Q 413.27 578.45 413.68 578.16&#xA;  Q 414.09 577.88 414.51 578.22&#xA;  Q 414.81 578.46 415.19 578.51&#xA;  C 417.99 578.88 420.30 579.90 423.06 579.99&#xA;  Q 429.66 580.18 436.27 580.63&#xA;  Q 436.77 580.67 437.02 581.11&#xA;  Q 438.20 583.23 440.73 583.16&#xA;  C 366.21 583.97 291.70 583.85 217.16 583.42&#xA;  Q 216.59 583.42 216.59 582.85&#xA;  L 216.61 573.00&#xA;  Q 218.59 573.64 219.34 572.26&#xA;  Z"></path>
<path fill="#446f7f" d="&#xA;  M 173.77 600.53&#xA;  L 174.61 607.21&#xA;  A 1.74 1.72 86.4 0 0 176.32 608.73&#xA;  C 185.83 608.77 195.28 608.56 204.73 609.05&#xA;  C 207.49 609.20 210.24 608.66 212.76 608.79&#xA;  C 218.78 609.08 224.81 609.46 230.83 609.47&#xA;  C 268.62 609.49 306.48 610.13 344.25 609.58&#xA;  Q 386.13 608.96 428.01 609.33&#xA;  C 430.96 609.35 433.99 609.05 436.95 608.86&#xA;  L 440.76 609.00&#xA;  A 0.78 0.78 0.0 0 1 441.46 609.51&#xA;  C 443.60 615.43 450.38 621.49 454.89 626.07&#xA;  C 393.80 626.50 328.15 625.95 280.81 626.35&#xA;  Q 222.64 626.84 180.50 626.25&#xA;  C 176.34 626.19 171.37 625.69 171.28 620.01&#xA;  Q 171.11 610.39 171.45 600.69&#xA;  Q 174.45 601.39 173.77 600.53&#xA;  Z"></path>
<path fill="#0c3b50" d="&#xA;  M 499.03 610.79&#xA;  L 499.06 624.67&#xA;  A 1.20 1.20 0.0 0 1 497.87 625.87&#xA;  L 454.89 626.07&#xA;  C 450.38 621.49 443.60 615.43 441.46 609.51&#xA;  A 0.78 0.78 0.0 0 0 440.76 609.00&#xA;  L 436.95 608.86&#xA;  Q 443.25 608.08 449.52 608.26&#xA;  C 463.09 608.65 476.67 608.53 490.25 608.47&#xA;  Q 492.04 608.47 492.06 607.36&#xA;  Q 495.02 605.73 497.53 607.03&#xA;  Q 497.98 607.26 498.13 607.75&#xA;  L 499.03 610.79&#xA;  Z"></path>
</svg>